<?xml version="1.0" encoding="UTF-8" standalone="no"?>
<svg
   xmlns:dc="http://purl.org/dc/elements/1.1/"
   xmlns:cc="http://creativecommons.org/ns#"
   xmlns:rdf="http://www.w3.org/1999/02/22-rdf-syntax-ns#"
   xmlns:svg="http://www.w3.org/2000/svg"
   xmlns="http://www.w3.org/2000/svg"
   xmlns:sodipodi="http://sodipodi.sourceforge.net/DTD/sodipodi-0.dtd"
   xmlns:inkscape="http://www.inkscape.org/namespaces/inkscape"
   width="474px"
   height="300px"
   viewBox="0 0 474 300"
   version="1.1"
   id="SVGRoot"
   sodipodi:docname="statistics.svg"
   inkscape:version="1.0.2 (1.0.2+r75+1)">
  <defs
     id="defs168">
    <filter
       id="filter0_d"
       x="97.787201"
       y="271.67001"
       width="15.0578"
       height="15.0578"
       filterUnits="userSpaceOnUse"
       color-interpolation-filters="sRGB">
      <feFlood
         flood-opacity="0"
         result="BackgroundImageFix"
         id="feFlood146" />
      <feColorMatrix
         in="SourceAlpha"
         type="matrix"
         values="0 0 0 0 0 0 0 0 0 0 0 0 0 0 0 0 0 0 127 0"
         id="feColorMatrix148" />
      <feOffset
         dy="1"
         id="feOffset150" />
      <feGaussianBlur
         stdDeviation="1"
         id="feGaussianBlur152" />
      <feColorMatrix
         type="matrix"
         values="0 0 0 0 0.215686 0 0 0 0 0.317647 0 0 0 0 1 0 0 0 0.2 0"
         id="feColorMatrix154" />
      <feBlend
         mode="normal"
         in2="BackgroundImageFix"
         result="effect1_dropShadow"
         id="feBlend156" />
      <feBlend
         mode="normal"
         in="SourceGraphic"
         in2="effect1_dropShadow"
         result="shape"
         id="feBlend158" />
    </filter>
    <filter
       id="filter1_f"
       x="70.100304"
       y="230.68401"
       width="83.336098"
       height="58.470501"
       filterUnits="userSpaceOnUse"
       color-interpolation-filters="sRGB">
      <feFlood
         flood-opacity="0"
         result="BackgroundImageFix"
         id="feFlood161" />
      <feBlend
         mode="normal"
         in="SourceGraphic"
         in2="BackgroundImageFix"
         result="shape"
         id="feBlend163" />
      <feGaussianBlur
         stdDeviation="10"
         result="effect1_foregroundBlur"
         id="feGaussianBlur165" />
    </filter>
    <filter
       id="filter2_d"
       x="165.155"
       y="228.22301"
       width="15.0578"
       height="15.0578"
       filterUnits="userSpaceOnUse"
       color-interpolation-filters="sRGB">
      <feFlood
         flood-opacity="0"
         result="BackgroundImageFix"
         id="feFlood168" />
      <feColorMatrix
         in="SourceAlpha"
         type="matrix"
         values="0 0 0 0 0 0 0 0 0 0 0 0 0 0 0 0 0 0 127 0"
         id="feColorMatrix170" />
      <feOffset
         dy="1"
         id="feOffset172" />
      <feGaussianBlur
         stdDeviation="1"
         id="feGaussianBlur174" />
      <feColorMatrix
         type="matrix"
         values="0 0 0 0 0.215686 0 0 0 0 0.317647 0 0 0 0 1 0 0 0 0.2 0"
         id="feColorMatrix176" />
      <feBlend
         mode="normal"
         in2="BackgroundImageFix"
         result="effect1_dropShadow"
         id="feBlend178" />
      <feBlend
         mode="normal"
         in="SourceGraphic"
         in2="effect1_dropShadow"
         result="shape"
         id="feBlend180" />
    </filter>
    <filter
       id="filter3_f"
       x="137.46899"
       y="187.237"
       width="83.336098"
       height="58.470501"
       filterUnits="userSpaceOnUse"
       color-interpolation-filters="sRGB">
      <feFlood
         flood-opacity="0"
         result="BackgroundImageFix"
         id="feFlood183" />
      <feBlend
         mode="normal"
         in="SourceGraphic"
         in2="BackgroundImageFix"
         result="shape"
         id="feBlend185" />
      <feGaussianBlur
         stdDeviation="10"
         result="effect1_foregroundBlur"
         id="feGaussianBlur187" />
    </filter>
    <filter
       id="filter4_d"
       x="292.923"
       y="158.515"
       width="15.0578"
       height="15.0578"
       filterUnits="userSpaceOnUse"
       color-interpolation-filters="sRGB">
      <feFlood
         flood-opacity="0"
         result="BackgroundImageFix"
         id="feFlood190" />
      <feColorMatrix
         in="SourceAlpha"
         type="matrix"
         values="0 0 0 0 0 0 0 0 0 0 0 0 0 0 0 0 0 0 127 0"
         id="feColorMatrix192" />
      <feOffset
         dy="1"
         id="feOffset194" />
      <feGaussianBlur
         stdDeviation="1"
         id="feGaussianBlur196" />
      <feColorMatrix
         type="matrix"
         values="0 0 0 0 0.215686 0 0 0 0 0.317647 0 0 0 0 1 0 0 0 0.2 0"
         id="feColorMatrix198" />
      <feBlend
         mode="normal"
         in2="BackgroundImageFix"
         result="effect1_dropShadow"
         id="feBlend200" />
      <feBlend
         mode="normal"
         in="SourceGraphic"
         in2="effect1_dropShadow"
         result="shape"
         id="feBlend202" />
    </filter>
    <filter
       id="filter5_f"
       x="265.237"
       y="117.529"
       width="83.336098"
       height="58.470501"
       filterUnits="userSpaceOnUse"
       color-interpolation-filters="sRGB">
      <feFlood
         flood-opacity="0"
         result="BackgroundImageFix"
         id="feFlood205" />
      <feBlend
         mode="normal"
         in="SourceGraphic"
         in2="BackgroundImageFix"
         result="shape"
         id="feBlend207" />
      <feGaussianBlur
         stdDeviation="10"
         result="effect1_foregroundBlur"
         id="feGaussianBlur209" />
    </filter>
    <filter
       id="filter6_d"
       x="27.802999"
       y="337.711"
       width="15.0578"
       height="15.0578"
       filterUnits="userSpaceOnUse"
       color-interpolation-filters="sRGB">
      <feFlood
         flood-opacity="0"
         result="BackgroundImageFix"
         id="feFlood212" />
      <feColorMatrix
         in="SourceAlpha"
         type="matrix"
         values="0 0 0 0 0 0 0 0 0 0 0 0 0 0 0 0 0 0 127 0"
         id="feColorMatrix214" />
      <feOffset
         dy="1"
         id="feOffset216" />
      <feGaussianBlur
         stdDeviation="1"
         id="feGaussianBlur218" />
      <feColorMatrix
         type="matrix"
         values="0 0 0 0 0.215686 0 0 0 0 0.317647 0 0 0 0 1 0 0 0 0.2 0"
         id="feColorMatrix220" />
      <feBlend
         mode="normal"
         in2="BackgroundImageFix"
         result="effect1_dropShadow"
         id="feBlend222" />
      <feBlend
         mode="normal"
         in="SourceGraphic"
         in2="effect1_dropShadow"
         result="shape"
         id="feBlend224" />
    </filter>
    <filter
       id="filter7_f"
       x="0.116211"
       y="296.72601"
       width="83.336098"
       height="58.470501"
       filterUnits="userSpaceOnUse"
       color-interpolation-filters="sRGB">
      <feFlood
         flood-opacity="0"
         result="BackgroundImageFix"
         id="feFlood227" />
      <feBlend
         mode="normal"
         in="SourceGraphic"
         in2="BackgroundImageFix"
         result="shape"
         id="feBlend229" />
      <feGaussianBlur
         stdDeviation="10"
         result="effect1_foregroundBlur"
         id="feGaussianBlur231" />
    </filter>
    <filter
       id="filter8_d"
       x="232.524"
       y="294.94901"
       width="15.0578"
       height="15.0578"
       filterUnits="userSpaceOnUse"
       color-interpolation-filters="sRGB">
      <feFlood
         flood-opacity="0"
         result="BackgroundImageFix"
         id="feFlood234" />
      <feColorMatrix
         in="SourceAlpha"
         type="matrix"
         values="0 0 0 0 0 0 0 0 0 0 0 0 0 0 0 0 0 0 127 0"
         id="feColorMatrix236" />
      <feOffset
         dy="1"
         id="feOffset238" />
      <feGaussianBlur
         stdDeviation="1"
         id="feGaussianBlur240" />
      <feColorMatrix
         type="matrix"
         values="0 0 0 0 0.215686 0 0 0 0 0.317647 0 0 0 0 1 0 0 0 0.2 0"
         id="feColorMatrix242" />
      <feBlend
         mode="normal"
         in2="BackgroundImageFix"
         result="effect1_dropShadow"
         id="feBlend244" />
      <feBlend
         mode="normal"
         in="SourceGraphic"
         in2="effect1_dropShadow"
         result="shape"
         id="feBlend246" />
    </filter>
    <filter
       id="filter9_f"
       x="204.83701"
       y="253.963"
       width="83.336098"
       height="58.470501"
       filterUnits="userSpaceOnUse"
       color-interpolation-filters="sRGB">
      <feFlood
         flood-opacity="0"
         result="BackgroundImageFix"
         id="feFlood249" />
      <feBlend
         mode="normal"
         in="SourceGraphic"
         in2="BackgroundImageFix"
         result="shape"
         id="feBlend251" />
      <feGaussianBlur
         stdDeviation="10"
         result="effect1_foregroundBlur"
         id="feGaussianBlur253" />
    </filter>
    <filter
       id="filter10_d"
       x="353.323"
       y="203.53"
       width="15.0578"
       height="15.0578"
       filterUnits="userSpaceOnUse"
       color-interpolation-filters="sRGB">
      <feFlood
         flood-opacity="0"
         result="BackgroundImageFix"
         id="feFlood256" />
      <feColorMatrix
         in="SourceAlpha"
         type="matrix"
         values="0 0 0 0 0 0 0 0 0 0 0 0 0 0 0 0 0 0 127 0"
         id="feColorMatrix258" />
      <feOffset
         dy="1"
         id="feOffset260" />
      <feGaussianBlur
         stdDeviation="1"
         id="feGaussianBlur262" />
      <feColorMatrix
         type="matrix"
         values="0 0 0 0 0.215686 0 0 0 0 0.317647 0 0 0 0 1 0 0 0 0.2 0"
         id="feColorMatrix264" />
      <feBlend
         mode="normal"
         in2="BackgroundImageFix"
         result="effect1_dropShadow"
         id="feBlend266" />
      <feBlend
         mode="normal"
         in="SourceGraphic"
         in2="effect1_dropShadow"
         result="shape"
         id="feBlend268" />
    </filter>
    <filter
       id="filter11_f"
       x="325.63599"
       y="162.54401"
       width="83.336098"
       height="58.470501"
       filterUnits="userSpaceOnUse"
       color-interpolation-filters="sRGB">
      <feFlood
         flood-opacity="0"
         result="BackgroundImageFix"
         id="feFlood271" />
      <feBlend
         mode="normal"
         in="SourceGraphic"
         in2="BackgroundImageFix"
         result="shape"
         id="feBlend273" />
      <feGaussianBlur
         stdDeviation="10"
         result="effect1_foregroundBlur"
         id="feGaussianBlur275" />
    </filter>
    <filter
       id="filter12_d"
       x="418.94901"
       y="249.748"
       width="15.0578"
       height="15.0578"
       filterUnits="userSpaceOnUse"
       color-interpolation-filters="sRGB">
      <feFlood
         flood-opacity="0"
         result="BackgroundImageFix"
         id="feFlood278" />
      <feColorMatrix
         in="SourceAlpha"
         type="matrix"
         values="0 0 0 0 0 0 0 0 0 0 0 0 0 0 0 0 0 0 127 0"
         id="feColorMatrix280" />
      <feOffset
         dy="1"
         id="feOffset282" />
      <feGaussianBlur
         stdDeviation="1"
         id="feGaussianBlur284" />
      <feColorMatrix
         type="matrix"
         values="0 0 0 0 0.215686 0 0 0 0 0.317647 0 0 0 0 1 0 0 0 0.2 0"
         id="feColorMatrix286" />
      <feBlend
         mode="normal"
         in2="BackgroundImageFix"
         result="effect1_dropShadow"
         id="feBlend288" />
      <feBlend
         mode="normal"
         in="SourceGraphic"
         in2="effect1_dropShadow"
         result="shape"
         id="feBlend290" />
    </filter>
    <filter
       id="filter13_f"
       x="391.26199"
       y="208.76199"
       width="83.336098"
       height="58.470501"
       filterUnits="userSpaceOnUse"
       color-interpolation-filters="sRGB">
      <feFlood
         flood-opacity="0"
         result="BackgroundImageFix"
         id="feFlood293" />
      <feBlend
         mode="normal"
         in="SourceGraphic"
         in2="BackgroundImageFix"
         result="shape"
         id="feBlend295" />
      <feGaussianBlur
         stdDeviation="10"
         result="effect1_foregroundBlur"
         id="feGaussianBlur297" />
    </filter>
  </defs>
  <sodipodi:namedview
     id="base"
     pagecolor="#ffffff"
     bordercolor="#666666"
     borderopacity="1.0"
     inkscape:pageopacity="0.0"
     inkscape:pageshadow="2"
     inkscape:zoom="1.4"
     inkscape:cx="263.75863"
     inkscape:cy="135.62005"
     inkscape:document-units="px"
     inkscape:current-layer="layer1"
     inkscape:document-rotation="0"
     showgrid="false"
     inkscape:window-width="1366"
     inkscape:window-height="736"
     inkscape:window-x="0"
     inkscape:window-y="0"
     inkscape:window-maximized="0" />
  <metadata
     id="metadata171">
    <rdf:RDF>
      <cc:Work
         rdf:about="">
        <dc:format>image/svg+xml</dc:format>
        <dc:type
           rdf:resource="http://purl.org/dc/dcmitype/StillImage" />
        <dc:title></dc:title>
      </cc:Work>
    </rdf:RDF>
  </metadata>
  <g
     inkscape:label="Layer 1"
     inkscape:groupmode="layer"
     id="layer1">
    <g
       style="fill:none"
       id="g460"
       transform="translate(13.753078,-91.021471)">
      <path
         id="rect10"
         transform="translate(-147.41384,-92.525727)"
         d="m 506.08984,143.0625 c -4.432,0 -8,3.568 -8,8 v 8.90234 c 0.71903,-0.32602 1.58537,-0.56394 2.64649,-0.63867 12.26419,-0.86367 24.42224,-2.72338 36.51367,-4.89453 4.29763,-0.88395 8.68504,-1.73316 13.08789,-1.83789 3.73501,-0.0889 7.46607,0.29914 11.19336,0.4668 3.48685,0.18206 6.97371,-0.0571 10.46094,-0.0645 -0.0245,-0.23479 -0.0513,-0.49658 -0.0488,-0.49218 0.003,0.005 0.033,0.23266 0.0684,0.49218 0.26053,-4.8e-4 0.52072,-0.008 0.78125,-0.006 0.0175,0.71889 -0.17089,1.63729 -0.38477,2.57813 0.2611,1.62704 0.57869,3.38127 0.97266,4.52734 1.64545,-0.46426 -0.36355,-4.89612 0.10547,-7.05859 0.0722,-0.33271 0.68095,-0.006 1.02148,-0.008 1.41619,-0.008 2.83824,-0.13164 4.25,-0.0195 0.99553,0.079 1.97863,0.26011 2.96875,0.39062 1.45227,0.34654 2.90666,0.69313 4.36328,1.0293 v -3.36719 c 0,-4.432 -3.568,-8 -8,-8 z m 67.29102,17.0332 c -0.11928,0.0337 -0.254,0.0515 -0.41406,0.041 -0.0983,-0.006 -0.17684,-0.0315 -0.25977,-0.0527 0.003,0.0268 0.003,0.0219 0.006,0.0488 -3.83478,-0.0534 -7.67141,0.29535 -11.50586,0.0645 -3.41423,-0.15728 -6.88249,-0.55007 -10.30273,-0.48438 -4.17052,0.0801 -8.32509,0.91235 -12.39258,1.75 -12.31298,2.20662 -24.69355,4.10191 -37.18164,4.98242 -1.30424,0.092 -2.38522,-0.0791 -3.24024,-0.41797 v 1.03516 c 0,4.432 3.568,8 8,8 h 72 c 4.432,0 8,-3.568 8,-8 v -5.30664 c -1.80297,-0.40581 -3.59958,-0.84081 -5.38867,-1.28711 -0.63666,-0.10579 -1.26695,-0.26357 -1.91015,-0.31641 -1.40788,-0.11554 -2.82569,0.012 -4.23829,0.0195 -0.38188,0.002 -1.01835,0.36758 -1.14648,0.008 -0.009,-0.0247 -0.0166,-0.0585 -0.0254,-0.084 z m -0.67383,-0.0117 c -0.21583,-2.20352 -0.28601,-2.85371 -0.40625,-4.02734 -0.43025,1.88487 -0.80511,3.71779 0.40625,4.02734 z m -0.40625,-4.02734 c 0.0377,-0.16511 0.0699,-0.32336 0.10742,-0.48828 -0.1684,-1.0494 -0.32713,-2.06323 -0.39648,-2.57227 -0.007,2e-5 -0.013,-10e-6 -0.0195,0 0.0388,0.37198 0.1929,1.93128 0.30859,3.06055 z" />
      <path
         id="path12"
         transform="translate(-147.41384,-92.525727)"
         d="m 193.64453,152.6875 c -0.448,0 -0.81059,0.13872 -1.08789,0.41602 -0.2667,0.2773 -0.40039,0.61813 -0.40039,1.02343 0,0.4053 0.13369,0.74614 0.40039,1.02344 0.2773,0.2773 0.63989,0.41602 1.08789,0.41602 0.448,0 0.80557,-0.13872 1.07227,-0.41602 0.2773,-0.2773 0.41601,-0.61814 0.41601,-1.02344 0,-0.4053 -0.13871,-0.74613 -0.41601,-1.02343 -0.2667,-0.2773 -0.62427,-0.41602 -1.07227,-0.41602 z m -41.20117,1.51953 c -0.23467,0 -0.48033,0.0217 -0.73633,0.0644 -0.256,0.032 -0.44322,0.0588 -0.56055,0.0801 v 1.96094 c 0.39696,-0.0927 0.81763,-0.16446 1.29102,-0.18359 0.38896,-0.0157 0.80417,-0.005 1.24414,0.0371 0.0885,0.008 0.17712,0.0133 0.26563,0.0215 v -0.65234 c 0,-0.2773 -0.0317,-0.50118 -0.0957,-0.67188 -0.064,-0.1707 -0.16106,-0.30439 -0.28906,-0.40039 -0.128,-0.096 -0.28847,-0.15941 -0.48047,-0.19141 -0.18134,-0.0427 -0.39334,-0.0644 -0.63867,-0.0644 z m 67.40625,0.0156 c -0.2347,0 -0.48033,0.0217 -0.73633,0.0645 -0.256,0.032 -0.44325,0.0588 -0.56055,0.0801 v 2.24023 c 0.9336,5.4e-4 1.86719,0.003 2.80079,0.004 v -1.06055 c 0,-0.2773 -0.0317,-0.50117 -0.0957,-0.67187 -0.064,-0.1707 -0.16106,-0.30439 -0.28906,-0.40039 -0.128,-0.096 -0.28847,-0.15941 -0.48047,-0.19141 -0.1814,-0.0427 -0.39337,-0.0645 -0.63867,-0.0645 z m 5.87109,0 c -0.2347,0 -0.48033,0.0217 -0.73632,0.0645 -0.256,0.032 -0.4413,0.0588 -0.5586,0.0801 v 2.24804 c 0.93294,9.4e-4 1.86589,8.7e-4 2.79883,0.002 v -1.06641 c 0,-0.2773 -0.0317,-0.50117 -0.0957,-0.67187 -0.064,-0.1707 -0.15911,-0.30439 -0.28711,-0.40039 -0.128,-0.096 -0.28847,-0.15941 -0.48047,-0.19141 -0.1814,-0.0427 -0.39533,-0.0645 -0.64063,-0.0645 z m 31.96875,1.80859 c -0.523,0 -1.0044,0.0585 -1.4414,0.17578 -0.385,0.10576 -0.71484,0.25564 -1.00391,0.43945 1.62305,0.002 3.2461,0.002 4.86914,0.004 -0.11806,-0.10202 -0.2488,-0.19454 -0.4082,-0.26758 -0.256,-0.1173 -0.56011,-0.20256 -0.91211,-0.25586 -0.341,-0.064 -0.70852,-0.0957 -1.10352,-0.0957 z m -95.03906,0.0156 c -0.5013,0 -0.99266,0.0802 -1.47266,0.24023 -0.27368,0.0851 -0.52466,0.20746 -0.76367,0.35156 1.57614,0.082 3.15301,0.14883 4.73047,0.19336 -0.28167,-0.2109 -0.59305,-0.39619 -0.95898,-0.5293 -0.4587,-0.1707 -0.96986,-0.25585 -1.53516,-0.25585 z m 8.31641,0 c -0.3733,-1e-5 -0.77252,0.0268 -1.19922,0.0801 -0.416,0.0533 -0.77849,0.13856 -1.08789,0.25586 -0.2773,0.1173 -0.4863,0.26094 -0.625,0.43164 -0.0184,0.023 -0.0253,0.0567 -0.041,0.082 1.97641,0.0321 3.95222,0.0465 5.92969,0.041 -0.065,-0.0558 -0.11929,-0.12034 -0.19141,-0.16992 -0.3306,-0.2453 -0.73679,-0.42762 -1.21679,-0.54492 -0.4693,-0.1173 -0.99236,-0.17578 -1.56836,-0.17578 z m 15.8125,0 c -0.672,0 -1.28515,0.0802 -1.83985,0.24023 -0.47532,0.1398 -0.86818,0.32206 -1.20507,0.53516 1.88941,-0.0325 3.77737,-0.0521 5.66601,-0.082 -0.64012,-0.45534 -1.50728,-0.69335 -2.62109,-0.69335 z m 13.84375,0 c -0.672,0 -1.28515,0.0802 -1.83985,0.24023 -0.34068,0.1002 -0.63278,0.22543 -0.90234,0.36328 1.73109,-0.009 3.46217,-0.0148 5.19336,-0.0195 -0.62267,-0.38145 -1.43183,-0.58398 -2.45117,-0.58398 z m 9.23242,0 c -0.5973,0 -1.15206,0.0802 -1.66406,0.24023 -0.27463,0.0818 -0.52549,0.19314 -0.76172,0.32617 1.28647,-0.003 2.573,-0.009 3.85937,-0.0137 0.33334,-3e-5 0.66667,0.002 1,0.002 -0.23759,-0.11944 -0.49339,-0.22755 -0.78515,-0.31445 -0.4907,-0.16 -1.04044,-0.24023 -1.64844,-0.24023 z m 23.0957,0 c -0.6294,0 -1.20089,0.0951 -1.71289,0.2871 -0.20833,0.0781 -0.39665,0.18074 -0.58203,0.28711 1.52148,0.002 3.04297,0.004 4.56445,0.006 -0.17756,-0.10133 -0.35618,-0.20022 -0.55664,-0.27539 -0.512,-0.2027 -1.08359,-0.30468 -1.71289,-0.30468 z m -52.68945,0.0156 c -0.3094,0 -0.61844,0.0268 -0.92774,0.0801 -0.3094,0.0427 -0.60848,0.1061 -0.89648,0.1914 -0.288,0.0853 -0.55845,0.18739 -0.81445,0.30469 -0.17553,0.0763 -0.31001,0.17101 -0.44727,0.26367 1.55592,-0.0154 3.11204,-0.0317 4.66797,-0.0566 -0.0723,-0.2023 -0.18912,-0.36527 -0.36523,-0.47851 -0.2987,-0.2027 -0.7048,-0.30469 -1.2168,-0.30469 z m 71.3125,0 c -0.309,0 -0.61874,0.0268 -0.92774,0.0801 -0.309,0.0427 -0.60848,0.1061 -0.89648,0.1914 -0.288,0.0853 -0.55845,0.18739 -0.81445,0.30469 -0.002,0.001 -0.004,0.003 -0.006,0.004 1.3763,0.002 2.7526,-2.2e-4 4.1289,0.002 -0.0702,-0.10901 -0.15466,-0.20484 -0.26757,-0.27734 -0.299,-0.2027 -0.7048,-0.30469 -1.2168,-0.30469 z M 193.5,156.25586 c -0.2347,0 -0.46853,0.0198 -0.70312,0.0625 -0.224,0.032 -0.39442,0.0588 -0.51172,0.0801 v 0.30078 c 0.82724,-0.0103 1.65547,-0.0305 2.48242,-0.0371 -0.0473,-0.0647 -0.10154,-0.12107 -0.16406,-0.16797 -0.128,-0.096 -0.28652,-0.15941 -0.47852,-0.19141 -0.1814,-0.032 -0.3904,-0.0469 -0.625,-0.0469 z m 46.18555,0 c -0.2454,0 -0.48415,0.0149 -0.71875,0.0469 -0.224,0.032 -0.3895,0.0637 -0.4961,0.0957 v 0.23242 c 0.81836,0.001 1.63672,6.2e-4 2.45508,0.002 -0.0411,-0.0507 -0.0833,-0.10005 -0.13476,-0.13867 -0.128,-0.096 -0.28847,-0.15941 -0.48047,-0.19141 -0.1814,-0.032 -0.3904,-0.0469 -0.625,-0.0469 z m 4.92773,0 c -0.2454,0 -0.48415,0.0149 -0.71875,0.0469 -0.224,0.032 -0.38949,0.0637 -0.49609,0.0957 v 0.23828 c 0.82031,0.001 1.64062,5.9e-4 2.46094,0.002 -0.0424,-0.0534 -0.0869,-0.10425 -0.14063,-0.14453 -0.128,-0.096 -0.28847,-0.15941 -0.48047,-0.19141 -0.1814,-0.032 -0.3904,-0.0469 -0.625,-0.0469 z m -93.44726,6.61133 c 0.0406,0.34362 0.16409,0.62696 0.38086,0.84375 0.26665,0.2667 0.62922,0.40039 1.08789,0.40039 h 4.28906 c 0.29866,0 0.53745,-0.0852 0.71875,-0.25586 0.056,-0.056 0.0999,-0.12949 0.13867,-0.20899 -1.5487,-0.10042 -3.09763,-0.21283 -4.64453,-0.35937 -0.74552,-0.0706 -1.39401,-0.22145 -1.9707,-0.41992 z m 60.15039,0.875 c -0.14454,5.5e-4 -0.28906,0.001 -0.4336,0.002 -0.033,0.3577 -0.19377,0.62766 -0.49804,0.79883 -0.3413,0.192 -0.80096,0.28711 -1.37696,0.28711 -0.416,0 -0.82209,-0.0585 -1.21679,-0.17578 -0.384,-0.1173 -0.72977,-0.26094 -1.03907,-0.43164 -0.128,0.096 -0.24486,0.23471 -0.35156,0.41601 -0.096,0.192 -0.14453,0.41095 -0.14453,0.65625 0,0.5867 0.27733,1.00767 0.83203,1.26367 0.5547,0.2667 1.31641,0.40039 2.28711,0.40039 0.5653,0 1.09328,-0.0634 1.58398,-0.1914 0.5013,-0.128 0.93418,-0.33208 1.29688,-0.60938 0.3733,-0.2667 0.66756,-0.60743 0.88086,-1.02343 0.20458,-0.38873 0.30413,-0.85472 0.3125,-1.39063 -0.71096,-1e-4 -1.42185,-0.002 -2.13281,-0.002 z m 7.48828,0.008 c 0.0407,0.0498 0.0821,0.0986 0.13281,0.13672 0.128,0.096 0.28149,0.15941 0.46289,0.1914 0.192,0.0427 0.41085,0.0645 0.65625,0.0645 0.2453,0 0.49093,-0.0149 0.73633,-0.0469 0.256,-0.032 0.44315,-0.0657 0.56055,-0.0976 v -0.24414 c -0.84964,-6.8e-4 -1.6992,-0.003 -2.54883,-0.004 z m 5.87695,0.008 c 0.0391,0.0467 0.0788,0.0928 0.12695,0.12891 0.128,0.096 0.28345,0.15941 0.46485,0.1914 0.192,0.0427 0.41085,0.0645 0.65625,0.0645 0.2453,0 0.49093,-0.0149 0.73633,-0.0469 0.256,-0.032 0.44119,-0.0657 0.55859,-0.0976 v -0.23828 c -0.84768,-9.9e-4 -1.69529,-0.001 -2.54297,-0.002 z m 6.00781,0.006 c 0.17619,0.0973 0.35219,0.19384 0.54883,0.26758 0.512,0.192 1.08349,0.28711 1.71289,0.28711 0.6293,0 1.20089,-0.0902 1.71289,-0.27148 0.21163,-0.0749 0.40178,-0.17324 0.58789,-0.27735 -1.52086,-0.002 -3.04163,-0.004 -4.5625,-0.006 z m -26.30468,0.006 c -0.83203,0.002 -1.66407,0.005 -2.4961,0.008 0.0517,0.0662 0.11001,0.1245 0.17578,0.17383 0.128,0.096 0.28159,0.15941 0.46289,0.19141 0.192,0.032 0.40593,0.0488 0.64063,0.0488 0.2453,0 0.47912,-0.0168 0.70312,-0.0488 0.2347,-0.032 0.40698,-0.0637 0.51368,-0.0957 z m 35.58593,0.006 c 0.25966,0.1435 0.5369,0.26765 0.85157,0.35156 0.4906,0.128 1.02361,0.19141 1.59961,0.19141 0.60799,0 1.16768,-0.0634 1.67968,-0.19141 0.36854,-0.0827 0.68613,-0.20655 0.98047,-0.34765 -1.70381,-0.003 -3.40751,-0.001 -5.11133,-0.004 z m 8.04102,0.008 c 0.0506,0.064 0.10787,0.11997 0.17187,0.16797 0.128,0.096 0.28189,0.15941 0.46289,0.19141 0.192,0.032 0.40563,0.0488 0.64063,0.0488 0.245,0 0.47912,-0.0168 0.70312,-0.0488 0.235,-0.032 0.40472,-0.0637 0.51172,-0.0957 v -0.26172 c -0.83007,-0.001 -1.66015,-5.9e-4 -2.49023,-0.002 z m -48.55664,0.004 c -0.82617,0.004 -1.65235,0.005 -2.47852,0.01 0.0476,0.0577 0.10128,0.11013 0.16016,0.15429 0.128,0.096 0.28159,0.15941 0.46289,0.19141 0.192,0.032 0.40592,0.0488 0.64062,0.0488 0.2453,0 0.47913,-0.0168 0.70313,-0.0488 0.2347,-0.032 0.40502,-0.0637 0.51172,-0.0957 z m 55.375,0.002 c 0.0799,0.056 0.15706,0.11383 0.25,0.16211 0.277,0.128 0.60819,0.22311 0.99219,0.28711 0.384,0.064 0.80004,0.0957 1.24804,0.0957 1.04035,0 1.84577,-0.18688 2.44141,-0.54101 -1.64383,-0.002 -3.28781,-10e-4 -4.93164,-0.004 z m -59.91211,0.0156 c -0.78263,0.006 -1.5667,0.0238 -2.34961,0.0332 0.037,0.0395 0.0722,0.081 0.11523,0.11328 0.128,0.096 0.28345,0.15941 0.46485,0.19141 0.192,0.032 0.40592,0.0488 0.64062,0.0488 0.2346,0 0.4635,-0.0218 0.6875,-0.0645 0.2346,-0.032 0.40995,-0.0588 0.52735,-0.0801 v -0.24219 c -0.0286,2.2e-4 -0.0573,-2.3e-4 -0.0859,0 z m -34.1543,0.002 c 0.18491,0.0941 0.37069,0.18667 0.57422,0.25586 0.544,0.1707 1.13047,0.25586 1.75977,0.25586 0.3733,0 0.77252,-0.0317 1.19922,-0.0957 0.31305,-0.047 0.59619,-0.13599 0.86328,-0.2461 -1.46634,-0.0396 -2.93126,-0.0994 -4.39649,-0.16992 z m 29.77539,0.0606 c -0.78962,0.0115 -1.57932,0.0221 -2.36914,0.0352 0.0176,0.0154 0.032,0.0348 0.0508,0.0488 0.128,0.096 0.28159,0.15941 0.46289,0.19141 0.192,0.032 0.40603,0.0488 0.64063,0.0488 0.2454,0 0.47912,-0.0168 0.70312,-0.0488 0.2347,-0.032 0.40512,-0.0637 0.51172,-0.0957 z m -4.92773,0.0723 c -0.76248,0.0131 -1.52455,0.0166 -2.28711,0.0293 0.12219,0.0845 0.26376,0.1442 0.43164,0.17383 0.192,0.032 0.40602,0.0488 0.64062,0.0488 0.2454,0 0.47913,-0.0168 0.70313,-0.0488 0.2347,-0.032 0.40512,-0.0637 0.51172,-0.0957 z m -6.42188,0.0801 c -0.71756,0.009 -1.4348,0.0186 -2.15234,0.0254 0.0904,0.043 0.18686,0.0782 0.29687,0.0977 0.192,0.032 0.40593,0.0488 0.64063,0.0488 0.2453,0 0.47912,-0.0168 0.70312,-0.0488 0.2346,-0.032 0.40502,-0.0637 0.51172,-0.0957 z m -9.9375,0.041 c 0.10256,0.0325 0.19706,0.0716 0.30664,0.0976 0.4587,0.1067 0.97181,0.16016 1.53711,0.16016 0.76627,0 1.41398,-0.0861 1.97071,-0.24024 -1.27143,7.9e-4 -2.54345,-0.004 -3.81446,-0.0176 z" />
      <path
         id="path14"
         transform="translate(-147.41384,-92.525727)"
         d="m 316.20508,154.0625 c -0.693,0 -1.34317,0.11194 -1.95117,0.33594 -0.608,0.224 -1.14061,0.55489 -1.59961,0.99218 -0.36141,0.35278 -0.64714,0.79069 -0.89063,1.2754 1.15884,4.1e-4 2.31772,-4.7e-4 3.47656,0 0.37756,-0.2241 0.83196,-0.34766 1.38086,-0.34766 0.416,0 0.77889,0.0654 1.08789,0.19336 0.11643,0.0466 0.22708,0.10066 0.3379,0.1543 0.30013,1.1e-4 0.60025,-0.002 0.90039,-0.002 0.0472,-0.0548 0.0958,-0.10688 0.13867,-0.16992 0.139,-0.2027 0.20703,-0.44145 0.20703,-0.71875 0,-0.5013 -0.27045,-0.91242 -0.81445,-1.23242 -0.533,-0.32 -1.29144,-0.48047 -2.27344,-0.48047 z m -27.02539,0.24023 c -0.523,0 -0.9288,0.0802 -1.2168,0.24024 -0.288,0.16 -0.47555,0.30856 -0.56055,0.44726 l -0.0957,1.67969 c 0.0736,-7e-5 0.14714,7e-5 0.2207,0 1.36985,-0.002 2.73956,0.002 4.10938,0 -0.0407,-0.12144 -0.0791,-0.24848 -0.1211,-0.36719 -0.10699,-0.3307 -0.20868,-0.6229 -0.30468,-0.8789 -0.149,-0.3947 -0.38313,-0.67891 -0.70313,-0.84961 -0.32,-0.1813 -0.76312,-0.27149 -1.32812,-0.27149 z m 6.30273,0 c -0.309,0 -0.59165,0.0317 -0.84765,0.0957 -0.245,0.0533 -0.44743,0.12368 -0.60743,0.20898 -0.20803,0.55213 -0.43842,1.24576 -0.6875,2.0625 1.39259,-10e-4 2.78517,-10e-4 4.17774,-0.002 -0.0171,-0.15205 -0.0338,-0.33655 -0.0508,-0.47656 -0.043,-0.448 -0.0859,-0.77889 -0.12891,-0.99219 -0.053,-0.288 -0.24322,-0.50695 -0.57422,-0.65625 -0.331,-0.16 -0.75825,-0.24024 -1.28125,-0.24024 z M 349,156.03125 c -0.522,0 -1.00145,0.0585 -1.43945,0.17578 -0.426,0.1173 -0.79352,0.2828 -1.10352,0.49609 -0.2376,0.16402 -0.42212,0.3686 -0.57812,0.59571 1.21904,0.0298 2.4407,0.0865 3.60351,0.0898 0.78263,0.005 1.56512,-0.002 2.34766,-0.004 -0.0204,-0.20348 -0.0798,-0.38573 -0.20508,-0.53711 -0.149,-0.192 -0.35142,-0.34755 -0.60742,-0.46485 -0.256,-0.1173 -0.56011,-0.20256 -0.91211,-0.25586 -0.341,-0.064 -0.71047,-0.0957 -1.10547,-0.0957 z m 16.73633,0 c -0.523,0 -1.00441,0.0585 -1.44141,0.17578 -0.427,0.1173 -0.79451,0.2828 -1.10351,0.49609 -0.26495,0.18289 -0.46737,0.41249 -0.63086,0.67383 2.00135,0 4.00258,1.6e-4 6.0039,0 -0.0217,-0.2002 -0.0823,-0.37986 -0.20507,-0.52929 -0.149,-0.192 -0.35143,-0.34755 -0.60743,-0.46485 -0.256,-0.1173 -0.56011,-0.20256 -0.91211,-0.25586 -0.341,-0.064 -0.70851,-0.0957 -1.10351,-0.0957 z m -41.47266,0.0156 c -0.629,0 -1.19894,0.0951 -1.71094,0.2871 -0.23921,0.0897 -0.46093,0.20313 -0.66992,0.33008 1.06773,3.1e-4 2.13538,-1.6e-4 3.20313,0 0.50706,3.1e-4 1.01432,7e-5 1.52148,0 -0.19778,-0.11883 -0.40362,-0.22728 -0.63086,-0.3125 -0.512,-0.2027 -1.08389,-0.30468 -1.71289,-0.30468 z m 33.02735,0 c -0.502,0 -0.99266,0.0802 -1.47266,0.24023 -0.48,0.1493 -0.9063,0.39 -1.2793,0.7207 -0.12731,0.10893 -0.23461,0.24382 -0.3457,0.375 1.1868,-0.005 2.37359,-0.0101 3.56055,-0.006 0.87102,2.3e-4 1.74219,-8e-5 2.61328,0 -0.10577,-0.1291 -0.21144,-0.25666 -0.33985,-0.36914 -0.331,-0.2987 -0.73217,-0.53438 -1.20117,-0.70508 -0.459,-0.1707 -0.97015,-0.25585 -1.53515,-0.25585 z m -14.4043,0.0156 c -0.309,0 -0.61774,0.0268 -0.92774,0.0801 -0.309,0.0427 -0.60848,0.1061 -0.89648,0.1914 -0.288,0.0853 -0.56041,0.18739 -0.81641,0.30469 -0.22902,0.0997 -0.41767,0.21801 -0.58203,0.34571 0.35179,0.15949 0.68959,0.34652 1.02539,0.55273 0.0499,-0.009 0.0625,-0.0129 0.0937,-0.0195 0.0148,0.007 0.0455,0.0286 0.0625,0.0371 0.68686,-0.0757 1.37129,-0.1726 2.06055,-0.22071 0.53711,-0.0375 1.08589,-0.0525 1.64063,-0.0547 -0.0108,-0.42181 -0.15564,-0.72735 -0.44336,-0.91211 -0.298,-0.2027 -0.7048,-0.30469 -1.2168,-0.30469 z m -2.04102,1.49219 c -0.0352,0.004 -0.0703,0.008 -0.10547,0.0117 0.28327,0.17408 0.57052,0.35195 0.87891,0.51171 0.28351,0.14689 -0.43746,-0.35567 -0.77344,-0.52343 z m -0.10547,0.0117 c -0.0165,-0.0101 -0.0343,-0.0192 -0.0508,-0.0293 -0.17393,0.0328 -0.43697,0.08 -0.32617,0.0703 0.12595,-0.0109 0.25123,-0.0277 0.37695,-0.041 z m -40.37304,-1.43946 c -0.299,0 -0.57603,0.0585 -0.83203,0.17578 -0.23475,0.10182 -0.42199,0.22463 -0.56836,0.36524 0.87564,-3.1e-4 1.75131,1.2e-4 2.62695,0 -0.0862,-0.12895 -0.18518,-0.23153 -0.29883,-0.30078 -0.246,-0.16 -0.55473,-0.24024 -0.92773,-0.24024 z m 5.39258,0 c -0.459,0 -0.88163,0.10199 -1.26563,0.30469 -0.0132,0.0769 -0.0327,0.15881 -0.0469,0.23633 0.83266,5e-5 1.66538,-0.002 2.49804,-0.002 -0.061,-0.12359 -0.14489,-0.22509 -0.25781,-0.29883 -0.246,-0.16 -0.55473,-0.24024 -0.92773,-0.24024 z m 25.23828,0.12891 c -0.245,0 -0.48375,0.0149 -0.71875,0.0469 -0.224,0.032 -0.3891,0.0637 -0.4961,0.0957 v 0.26367 c 0.82819,-4.8e-4 1.6564,-1e-4 2.48438,0 -0.0473,-0.0647 -0.10154,-0.12107 -0.16406,-0.16797 -0.128,-0.096 -0.28847,-0.15941 -0.48047,-0.19141 -0.181,-0.032 -0.39,-0.0469 -0.625,-0.0469 z m 4.92968,0 c -0.245,0 -0.4857,0.0149 -0.7207,0.0469 -0.224,0.032 -0.38909,0.0637 -0.49609,0.0957 v 0.26367 c 0.82811,-3e-5 1.65624,3e-5 2.48437,0 -0.0473,-0.0647 -0.10153,-0.12107 -0.16406,-0.16797 -0.128,-0.096 -0.28847,-0.15941 -0.48047,-0.19141 -0.181,-0.032 -0.38805,-0.0469 -0.62305,-0.0469 z m -4.59375,7.54883 c 0.24582,0.13027 0.50703,0.24393 0.80079,0.32226 0.491,0.128 1.02361,0.19141 1.59961,0.19141 0.60799,0 1.16768,-0.0634 1.67968,-0.19141 0.34834,-0.0781 0.6518,-0.19206 0.9336,-0.32226 -1.32554,8e-5 -2.65117,2.6e-4 -3.97657,0 -0.34572,-6e-5 -0.6914,-9e-5 -1.03711,0 z m -9.24414,0.002 c 0.15091,0.0787 0.29756,0.16261 0.46289,0.22461 0.512,0.192 1.08194,0.28711 1.71094,0.28711 0.629,0 1.20089,-0.0902 1.71289,-0.27148 0.18347,-0.065 0.34551,-0.15334 0.50977,-0.24024 -0.4668,4e-5 -0.93357,2.8e-4 -1.40039,0 -0.99869,-1.5e-4 -1.9974,2.8e-4 -2.9961,0 z m -8.27148,0.002 c 0.17949,0.0832 0.35206,0.1755 0.54687,0.23829 0.63,0.20269 1.30358,0.30468 2.01758,0.30468 0.992,0 1.72703,-0.15052 2.20703,-0.44922 0.0474,-0.0299 0.0822,-0.0627 0.125,-0.0937 -1.63216,-6e-4 -3.26431,6.4e-4 -4.89648,0 z m -18.26367,0.002 c 0.0615,0.0688 0.13077,0.1288 0.21679,0.17187 0.277,0.1387 0.61844,0.20899 1.02344,0.20899 0.309,0 0.55996,-0.0268 0.75196,-0.0801 0.20299,-0.0427 0.39517,-0.11791 0.57617,-0.22461 -7.7e-4,-0.0179 -0.003,-0.0572 -0.004,-0.0762 -0.85482,3.7e-4 -1.70963,-6e-4 -2.56445,0 z m 6.15234,0 c -0.22111,0.25334 -0.44217,0.50682 -0.69922,0.74804 -0.342,0.3307 -0.68439,0.62979 -1.02539,0.89649 0.053,0.4267 0.2181,0.77236 0.4961,1.03906 0.277,0.2667 0.63989,0.40039 1.08789,0.40039 0.256,0 0.50132,-0.0366 0.73632,-0.11133 0.234,-0.064 0.47008,-0.19276 0.70508,-0.38476 0.234,-0.1813 0.47838,-0.43688 0.73438,-0.76758 0.256,-0.3307 0.53303,-0.7566 0.83203,-1.2793 0.094,-0.1607 0.19387,-0.36013 0.29101,-0.54101 -1.05274,-9e-5 -2.10546,-1.3e-4 -3.1582,0 z m -14.56641,0.002 c 0.0513,0.0603 0.11062,0.11288 0.18165,0.1543 0.267,0.1493 0.63646,0.22461 1.10546,0.22461 0.224,0 0.44788,-0.0218 0.67188,-0.0645 0.224,-0.032 0.40397,-0.0756 0.54297,-0.1289 0.004,-0.0678 0.005,-0.11907 0.008,-0.18555 -0.70572,0.001 -1.41147,-0.001 -2.11719,0 -0.13085,1.2e-4 -0.26172,-1.2e-4 -0.39258,0 z" />
      <path
         id="path16"
         transform="translate(-147.41384,-92.525727)"
         d="m 514.56836,154.82031 0.67578,3.05078 c 0.58673,-0.0744 1.17345,-0.15281 1.75977,-0.23047 l -0.53711,-2.82031 z m 4.67187,0 -0.60351,2.60547 c 0.90959,-0.12507 1.81793,-0.25845 2.72656,-0.39062 l -0.51172,-2.21485 z m 4.37305,0 -0.36719,1.94141 c 0.63395,-0.0955 1.26689,-0.19641 1.90039,-0.29492 l 0.36524,-1.64649 z m 27.29102,4.89258 c -0.008,1.5e-4 -0.0156,0.002 -0.0234,0.002 l 1.52539,4.36719 -0.2168,0.56445 c -0.097,0.2454 -0.23225,0.42155 -0.40625,0.52735 -0.169,0.1058 -0.42643,0.1582 -0.77343,0.1582 l -0.2793,-0.006 v 1.39063 c 0.275,0.0804 0.5455,0.11914 0.8125,0.11914 0.944,0 1.62125,-0.44851 2.03125,-1.34571 l 0.15234,-0.36132 1.83985,-5.28321 c -0.60225,-0.0362 -1.20506,-0.0701 -1.80664,-0.0937 l -0.50977,1.71485 -0.51758,-1.73633 c -0.61015,-0.0134 -1.22043,-0.0292 -1.82812,-0.0176 z m -1.73633,0.0781 c -0.61424,0.0405 -1.22695,0.10359 -1.83985,0.16992 v 4.10156 h 1.83985 z m -4.98633,0.5996 c -1.30424,0.21281 -2.60139,0.45593 -3.89258,0.71485 v 2.95703 h 1.83399 v -2.09375 l 0.66015,-0.66016 1.76368,2.75391 h 2.10742 z m -5.98828,1.55274 c -0.398,0.512 -0.94925,0.76758 -1.65625,0.76758 -0.457,0 -0.83672,-0.13545 -1.13672,-0.40625 -0.0882,-0.0807 -0.16129,-0.17304 -0.22851,-0.26953 -0.61371,0.10678 -1.22774,0.21156 -1.8418,0.3164 0.15427,0.33851 0.3537,0.64841 0.62304,0.91211 0.634,0.6178 1.4559,0.92578 2.4629,0.92578 0.572,0 1.0925,-0.10842 1.5625,-0.32422 0.47,-0.22 0.84218,-0.52476 1.11718,-0.91406 z m -6.42774,0.67578 c -1.56063,0.26177 -3.12048,0.52715 -4.68359,0.77344 0.61178,0.52361 1.37373,0.79687 2.30078,0.79687 0.572,0 1.0925,-0.10842 1.5625,-0.32422 0.469,-0.22 0.84219,-0.52476 1.11719,-0.91406 z m -8.27734,1.32422 c -0.27459,0.0408 -0.54955,0.0789 -0.82422,0.11914 h 0.79688 z" />
      <path
         id="path18"
         transform="translate(-147.41384,-92.525727)"
         d="m 252.98242,100.75586 c -0.672,0 -1.21486,0.20705 -1.63086,0.62305 -0.4,0.416 -0.60156,0.92716 -0.60156,1.53515 0,0.608 0.20156,1.12111 0.60156,1.53711 0.416,0.416 0.95886,0.62305 1.63086,0.62305 0.672,0 1.20938,-0.20705 1.60938,-0.62305 0.416,-0.416 0.62304,-0.92911 0.62304,-1.53711 0,-0.60799 -0.20704,-1.11915 -0.62304,-1.53515 -0.4,-0.416 -0.93738,-0.62305 -1.60938,-0.62305 z m 28.19727,0 c -0.672,0 -1.21682,0.20705 -1.63281,0.62305 -0.4,0.416 -0.59961,0.92716 -0.59961,1.53515 0,0.608 0.19961,1.12111 0.59961,1.53711 0.41599,0.416 0.96081,0.62305 1.63281,0.62305 0.672,0 1.20742,-0.20705 1.60742,-0.62305 0.416,-0.416 0.62305,-0.92911 0.62305,-1.53711 0,-0.60799 -0.20705,-1.11915 -0.62305,-1.53515 -0.4,-0.416 -0.93542,-0.62305 -1.60742,-0.62305 z m -119.72071,2.44726 c -0.16117,0 -0.32679,0.009 -0.49609,0.0293 -0.12162,1.42913 -0.0581,3.32404 -0.12695,4.36719 -0.002,0.0341 0.0154,0.0642 0.0391,0.0937 0.27137,0.0819 0.54001,0.17248 0.8125,0.25 0.26211,0.0746 -0.62426,-0.0147 -0.8125,-0.25 -0.88552,-0.26714 -1.76408,-0.56021 -2.64453,-0.84766 -0.1139,0.27962 -0.22613,0.55846 -0.34766,0.84571 -0.16,0.4 -0.35219,0.84775 -0.57617,1.34375 h -0.14453 l -1.48633,-2.99219 c -1.24191,-0.38243 -2.49132,-0.74086 -3.76562,-1.00781 -0.55108,-0.11545 -1.02631,-0.27899 -1.4668,-0.46094 0.22715,0.55147 0.49973,1.14499 0.83984,1.79687 0.384,0.72 0.80005,1.45504 1.24805,2.20703 0.448,0.752 0.90319,1.48899 1.36719,2.20899 0.464,0.72 0.89687,1.37675 1.29687,1.96875 v 3.23828 c 0,0.8 0.18278,1.32799 0.55078,1.58398 0.368,0.24 0.92025,0.36133 1.65625,0.36133 0.35198,0 0.71208,-0.0243 1.08008,-0.0723 0.368,-0.048 0.64041,-0.0965 0.81641,-0.14453 v -4.8711 c 0.944,-1.52 1.68842,-2.75326 2.23242,-3.69726 0.23678,-0.39914 0.34896,-0.61573 0.53711,-0.94336 0.13855,-1.46869 0.76106,-3.1478 0.78516,-4.56641 -0.38031,-0.29346 -0.84433,-0.44141 -1.39454,-0.44141 z m 58.9629,0.38477 c -0.368,0 -0.72065,0.0317 -1.05665,0.0957 -0.32,0.048 -0.56814,0.0946 -0.74414,0.14258 v 10.27344 c 0,0.4693 0.0549,0.87934 0.13477,1.26367 1.38603,-0.27286 2.77652,-0.52465 4.16797,-0.76953 -0.17651,-0.17995 -0.26953,-0.43778 -0.26953,-0.7832 v -3.62305 h 2.18359 c 0.416,0 0.74438,-0.12133 0.98438,-0.36133 0.256,-0.256 0.38281,-0.66265 0.38281,-1.22265 0,-0.32 -0.0466,-0.60924 -0.14258,-0.86524 -0.08,-0.272 -0.16963,-0.49587 -0.26562,-0.67187 h -3.14258 v -1.53516 c 0,-0.8 -0.19961,-1.32055 -0.59961,-1.56055 -0.384,-0.256 -0.92882,-0.38281 -1.63281,-0.38281 z m 22.66406,0 c -0.368,0 -0.72064,0.0317 -1.05664,0.0957 -0.32,0.048 -0.56814,0.0946 -0.74414,0.14258 v 7.81836 c 1.03097,-0.17219 1.97095,-0.32862 4.0332,-0.6875 v -0.76953 h 2.18359 c 0.416,0 0.74438,-0.12133 0.98438,-0.36133 0.256,-0.256 0.38281,-0.66265 0.38281,-1.22265 0,-0.32 -0.0466,-0.60924 -0.14258,-0.86524 -0.08,-0.272 -0.16962,-0.49587 -0.26562,-0.67187 h -3.14258 v -1.53516 c 0,-0.8 -0.20156,-1.32055 -0.60156,-1.56055 -0.384,-0.256 -0.92686,-0.38281 -1.63086,-0.38281 z m 28.19531,0 c -0.368,0 -0.72064,0.0317 -1.05664,0.0957 -0.32,0.048 -0.56814,0.0946 -0.74414,0.14258 v 4.20313 c 2.38146,0.008 4.91357,-0.16069 7.11523,-0.21094 0.11457,-0.003 0.22919,-0.003 0.34375,-0.006 -0.008,-0.0238 -0.0108,-0.051 -0.0195,-0.0742 -0.08,-0.272 -0.16767,-0.49587 -0.26367,-0.67187 h -3.14258 v -1.53516 c 0,-0.8 -0.20156,-1.32055 -0.60156,-1.56055 -0.384,-0.256 -0.92686,-0.38281 -1.63086,-0.38281 z m -59.52734,2.18359 c -0.784,0 -1.50416,0.0877 -2.16016,0.26368 -0.64,0.176 -1.19225,0.42414 -1.65625,0.74414 -0.464,0.32 -0.82408,0.71922 -1.08008,1.19922 -0.256,0.48 -0.38476,1.01737 -0.38476,1.60937 0,1.088 0.33581,1.92753 1.00781,2.51953 0.688,0.576 1.72909,0.99949 3.12109,1.27149 l 0.71875,0.14453 c 0.448,0.08 0.76894,0.18254 0.96094,0.31054 0.192,0.128 0.28711,0.3053 0.28711,0.5293 0,0.24 -0.13425,0.43217 -0.40625,0.57617 -0.256,0.144 -0.63291,0.21485 -1.12891,0.21485 -0.784,0 -1.47989,-0.0951 -2.08789,-0.28711 -0.592,-0.208 -1.11998,-0.43932 -1.58398,-0.69531 -0.224,0.17599 -0.41617,0.39987 -0.57617,0.67187 -0.16,0.256 -0.24024,0.57498 -0.24024,0.95898 0,0.416 0.11194,0.77608 0.33594,1.08008 0.24,0.304 0.56094,0.55958 0.96094,0.76758 0.14978,0.0691 0.32166,0.12496 0.49218,0.18164 0.2443,0.006 0.48799,0.008 0.72852,-0.0312 2.20946,-0.35871 2.4501,-0.84193 4.54688,-1.33398 0.88854,-0.20852 1.78353,-0.38582 2.67578,-0.57618 0.20633,-0.45893 0.3164,-0.97238 0.3164,-1.55078 0,-0.976 -0.32837,-1.76895 -0.98437,-2.37695 -0.64,-0.624 -1.72767,-1.11284 -3.26367,-1.46484 l -0.74414,-0.16797 c -0.448,-0.096 -0.75211,-0.19855 -0.91211,-0.31055 -0.16,-0.112 -0.24024,-0.25564 -0.24024,-0.43164 0,-0.256 0.14364,-0.44073 0.43164,-0.55273 0.288,-0.128 0.69661,-0.19141 1.22461,-0.19141 0.256,0 0.53585,0.0223 0.83984,0.0703 0.32,0.048 0.63155,0.11336 0.93555,0.19336 0.304,0.064 0.58385,0.14424 0.83985,0.24024 0.256,0.08 0.44817,0.16023 0.57617,0.24023 0.208,-0.176 0.3759,-0.39244 0.5039,-0.64844 0.144,-0.272 0.2168,-0.59293 0.2168,-0.96093 0,-0.384 -0.11194,-0.71238 -0.33594,-0.98438 -0.224,-0.288 -0.52811,-0.51931 -0.91211,-0.69531 -0.384,-0.176 -0.83918,-0.30477 -1.36718,-0.38477 -0.512,-0.096 -1.06425,-0.14258 -1.65625,-0.14258 z m 50.85937,0 c -0.784,0 -1.50416,0.0877 -2.16016,0.26368 -0.63999,0.176 -1.19225,0.42414 -1.65624,0.74414 -0.30387,0.20956 -0.54511,0.46595 -0.75977,0.74414 1.04602,-0.22411 2.11885,-0.32182 3.17578,-0.49219 0.75628,0.0633 1.5157,0.0863 2.26758,0.18945 1.14453,0.15709 2.24685,0.58343 3.39453,0.70118 -0.0113,-0.35792 -0.1141,-0.67022 -0.32617,-0.92774 -0.224,-0.288 -0.52811,-0.51931 -0.91211,-0.69531 -0.384,-0.176 -0.83919,-0.30477 -1.36719,-0.38477 -0.512,-0.096 -1.06425,-0.14258 -1.65625,-0.14258 z m 39.70313,0 c -0.784,0 -1.50416,0.0877 -2.16016,0.26368 -0.64,0.176 -1.19225,0.42414 -1.65625,0.74414 -0.39383,0.27161 -0.69547,0.61312 -0.93945,1 0.054,1.3e-4 0.10808,-1.2e-4 0.16211,0 2.94391,-0.0117 5.88799,-0.008 8.83203,-0.008 -0.0351,-0.29189 -0.12224,-0.55817 -0.30274,-0.77734 -0.224,-0.288 -0.52811,-0.51931 -0.91211,-0.69531 -0.384,-0.176 -0.83918,-0.30477 -1.36718,-0.38477 -0.512,-0.096 -1.06425,-0.14258 -1.65625,-0.14258 z m -69.33399,0.0234 c -0.56,0 -1.15883,0.0391 -1.79883,0.11914 -0.624,0.08 -1.16881,0.20877 -1.63281,0.38477 -0.416,0.176 -0.72755,0.39244 -0.93555,0.64844 -0.192,0.24 -0.28906,0.56837 -0.28906,0.98437 0,0.32 0.0728,0.63155 0.2168,0.93555 0.144,0.288 0.31934,0.50444 0.52734,0.64843 0.464,-0.19199 0.98455,-0.35246 1.56055,-0.48046 0.576,-0.128 1.16739,-0.19141 1.77539,-0.19141 0.768,0 1.35195,0.10255 1.75195,0.31055 0.416,0.192 0.625,0.52037 0.625,0.98437 v 0.16797 l -3.14453,0.33594 c -1.376,0.144 -2.39087,0.51151 -3.04687,1.10351 -0.552,0.49815 -0.8578,1.19011 -0.94532,2.05079 1.9636,-0.31887 3.92763,-0.63114 5.89063,-0.94532 2.79573,-0.42057 3.96337,-0.5916 5.20508,-0.78515 v -1.87891 c 0,-0.752 -0.13425,-1.40131 -0.40625,-1.94531 -0.272,-0.56 -0.66574,-1.01519 -1.17774,-1.36719 -0.496,-0.368 -1.10226,-0.64041 -1.82226,-0.81641 -0.704,-0.176 -1.48952,-0.26367 -2.35352,-0.26367 z m 58.76172,0 c -0.864,0 -1.68866,0.12877 -2.47266,0.38477 -0.768,0.256 -1.44706,0.63839 -2.03906,1.15039 -0.14107,0.122 -0.2749,0.25422 -0.40234,0.39258 2.82678,0.008 5.65382,0.0283 8.48047,0.043 -0.0747,-0.53605 -0.36511,-0.98949 -0.90235,-1.34765 -0.624,-0.416 -1.51206,-0.62305 -2.66406,-0.62305 z m -93.9668,0.0234 c -0.464,0 -0.92857,0.0411 -1.39257,0.12109 -0.464,0.064 -0.91175,0.15911 -1.34375,0.28711 -0.432,0.128 -0.84061,0.28103 -1.22461,0.45703 -0.368,0.16 -0.67955,0.34279 -0.93555,0.55079 -0.256,0.20799 -0.45561,0.4487 -0.59961,0.7207 -0.128,0.256 -0.19141,0.56755 -0.19141,0.93554 v 7.20118 c 0,0.0846 0.0113,0.1523 0.0156,0.23047 0.42416,0.22609 0.85054,0.43306 1.26758,0.54101 0.38112,0.0986 0.77818,0.11065 1.16797,0.16602 0.74128,0.12624 1.18175,0.18794 1.6289,0.28515 v -7.70312 c 0.208,-0.096 0.45614,-0.17624 0.74414,-0.24024 0.304,-0.08 0.62299,-0.15279 0.95899,-0.21679 0.336,-0.064 0.6812,-0.11058 1.0332,-0.14258 0.352,-0.032 0.69525,-0.0488 1.03125,-0.0488 0.096,-0.176 0.17623,-0.36817 0.24023,-0.57617 0.064,-0.224 0.0957,-0.44788 0.0957,-0.67188 0,-0.672 -0.22388,-1.15145 -0.67188,-1.43945 -0.448,-0.304 -1.05622,-0.45703 -1.82422,-0.45703 z m -17.83203,0.28906 c -0.368,0 -0.72808,0.0243 -1.08008,0.0723 -0.336,0.048 -0.58414,0.0946 -0.74414,0.14258 v 1.36523 c 0.82388,0.586 1.61421,1.19612 2.2793,1.83984 0.3267,0.31621 0.45391,0.87735 0.875,1.04883 0.26512,0.10797 -0.19291,-0.53896 -0.28906,-0.80859 0.41415,0.10622 0.81766,0.23613 1.21484,0.38086 v -2.1211 c 0,-0.4 -0.056,-0.72093 -0.16797,-0.96093 -0.096,-0.256 -0.24159,-0.45561 -0.43359,-0.59961 -0.192,-0.144 -0.43075,-0.23911 -0.71875,-0.28711 -0.272,-0.048 -0.58355,-0.0723 -0.93555,-0.0723 z m 7.39063,0 c -0.368,0 -0.72808,0.0243 -1.08008,0.0723 -0.336,0.048 -0.58414,0.0946 -0.74414,0.14258 v 5.54101 c 1.1941,0.80278 2.30198,1.74247 3.32617,2.75195 0.2889,0.12979 0.52108,0.25047 0.75391,0.36915 v -6.95704 c 0,-0.4 -0.056,-0.72093 -0.16797,-0.96093 -0.096,-0.256 -0.23964,-0.45561 -0.43164,-0.59961 -0.192,-0.144 -0.43075,-0.23911 -0.71875,-0.28711 -0.272,-0.048 -0.5855,-0.0723 -0.9375,-0.0723 z m 65.43164,0 c -0.352,0 -0.70464,0.0317 -1.05664,0.0957 -0.336,0.048 -0.59158,0.0872 -0.76758,0.11915 v 3.66796 c 1.41967,-0.29333 2.74524,-0.88954 4.08008,-1.45117 v -0.51172 c 0,-0.4 -0.056,-0.72093 -0.16797,-0.96093 -0.096,-0.256 -0.2416,-0.45561 -0.43359,-0.59961 -0.192,-0.144 -0.43076,-0.23911 -0.71876,-0.28711 -0.27199,-0.048 -0.58354,-0.0723 -0.93554,-0.0723 z m 28.19531,0 c -0.352,0 -0.70464,0.0317 -1.05664,0.0957 -0.336,0.048 -0.59158,0.0872 -0.76758,0.11915 v 1.45312 c 1.35215,-0.0225 2.7043,-0.0411 4.05664,-0.0469 -0.0224,-0.25753 -0.0635,-0.48841 -0.14453,-0.66211 -0.096,-0.256 -0.23964,-0.45561 -0.43164,-0.59961 -0.192,-0.144 -0.4327,-0.23911 -0.7207,-0.28711 -0.272,-0.048 -0.58355,-0.0723 -0.93555,-0.0723 z m -116.87305,3.13477 c -0.0257,0.0596 -0.0559,0.11464 -0.0801,0.17578 -0.304,0.768 -0.45508,1.62436 -0.45508,2.56836 0,0.96 0.15108,1.8238 0.45508,2.59179 0.304,0.768 0.72748,1.42476 1.27148,1.96876 0.56,0.52799 1.22419,0.9366 1.99219,1.2246 0.768,0.288 1.62436,0.43164 2.56836,0.43164 0.944,1e-5 1.80036,-0.1362 2.56836,-0.4082 0.768,-0.272 1.42475,-0.67122 1.96875,-1.19922 0.51661,-0.48709 0.91805,-1.08209 1.21679,-1.77343 -1.99003,-1.58453 1.93598,1.23803 -2.53906,-1.89844 -0.37642,-0.27381 -0.72894,-0.5816 -1.10742,-0.85156 -0.0113,0.91643 -0.19051,1.63517 -0.54688,2.14648 -0.352,0.528 -0.86511,0.79297 -1.53711,0.79297 -0.672,0 -1.19998,-0.25753 -1.58398,-0.76953 -0.368,-0.528 -0.55078,-1.27986 -0.55078,-2.25586 0,-0.55541 0.0682,-1.02619 0.19141,-1.43164 -1.26825,-0.46767 -2.5418,-0.91848 -3.83204,-1.3125 z m 99.31836,5.26367 c -0.0451,0.17373 -0.17178,0.31981 -0.38672,0.43359 -0.256,0.144 -0.6329,0.21485 -1.1289,0.21485 -0.784,0 -1.47989,-0.0951 -2.08789,-0.28711 -0.23473,-0.0825 -0.45141,-0.1717 -0.66602,-0.26172 -0.55448,0.18192 -1.10299,0.38525 -1.64648,0.60351 -0.0532,0.17891 -0.0879,0.37226 -0.0879,0.59375 0,0.416 0.11193,0.77608 0.33593,1.08008 0.24,0.304 0.56094,0.55958 0.96094,0.76758 0.416,0.192 0.91228,0.33564 1.48828,0.43164 0.576,0.096 1.1991,0.14453 1.8711,0.14453 1.776,0 3.1212,-0.34325 4.0332,-1.03125 0.72019,-0.5433 1.14345,-1.25829 1.29492,-2.13086 -1.06635,-0.0754 -2.12182,-0.20564 -3.15625,-0.41992 -0.38607,-0.08 -0.61133,-0.10978 -0.82422,-0.13867 z m -88.05078,0.0684 c -0.0995,-0.0543 0.071,0.0973 0.24024,0.24219 0.0115,-0.0266 0.026,-0.0512 0.0371,-0.0781 -0.0936,-0.0529 -0.183,-0.11254 -0.27735,-0.16406 z m 111.875,0.29101 c -0.42974,-0.001 -0.85932,0.003 -1.28906,0.002 0.30556,0.61864 0.69994,1.16485 1.19336,1.63086 0.592,0.528 1.29533,0.94404 2.11133,1.24804 0.816,0.288 1.72833,0.4336 2.73633,0.4336 1.10399,0 1.96779,-0.1773 2.59179,-0.5293 0.624,-0.368 0.93555,-0.87916 0.93555,-1.53516 0,-0.368 -0.0802,-0.67954 -0.24024,-0.93554 -0.0557,-0.0947 -0.13384,-0.18257 -0.20898,-0.27149 -0.63735,-0.003 -1.27476,-0.008 -1.91211,-0.0117 -0.24086,0.0399 -0.49675,0.0664 -0.7832,0.0664 -0.24353,0 -0.47121,-0.03 -0.69336,-0.0742 -1.48043,-0.01 -2.96102,-0.0183 -4.44141,-0.0234 z m -4.01367,0.006 c -1.36013,0.006 -2.72008,0.0257 -4.08008,0.0488 v 1.17188 c 0,0.4 0.0485,0.72642 0.14453,0.98242 0.112,0.24 0.26308,0.43217 0.45508,0.57617 0.192,0.144 0.42527,0.24106 0.69727,0.28906 0.288,0.048 0.60698,0.0723 0.95898,0.0723 0.352,0 0.6972,-0.0337 1.0332,-0.0977 0.352,-0.048 0.61502,-0.0871 0.79102,-0.11914 z m 23.88867,0.043 c -1.45183,-3.8e-4 -2.90363,0.002 -4.35547,0.004 -0.0114,0.007 -0.0154,0.0152 -0.0273,0.0215 -0.256,0.144 -0.63291,0.21485 -1.12891,0.21485 -0.68776,0 -1.29533,-0.0866 -1.84765,-0.23438 -0.68034,0.002 -1.3607,-7.4e-4 -2.04102,0.002 -0.1302,-2.8e-4 -0.26042,-0.002 -0.39062,-0.002 -0.13307,0.24374 -0.20899,0.53262 -0.20899,0.88281 0,0.416 0.11194,0.77608 0.33594,1.08008 0.24,0.304 0.56094,0.55958 0.96094,0.76758 0.416,0.192 0.91228,0.33564 1.48828,0.43164 0.576,0.096 1.19909,0.14453 1.87109,0.14453 1.776,0 3.11925,-0.34325 4.03125,-1.03125 0.76002,-0.57334 1.18585,-1.34122 1.3125,-2.28125 z m -30.53515,0.0508 c -2.294,0.0577 -4.66256,0.2037 -7.01172,0.17774 0.14519,0.90909 0.49341,1.60348 1.04883,2.07617 0.76799,0.64 1.85567,0.96094 3.26367,0.96094 1.152,0 1.95239,-0.19217 2.40039,-0.57617 0.464,-0.384 0.69531,-0.88029 0.69531,-1.48829 0,-0.304 -0.056,-0.55957 -0.16797,-0.76757 -0.0611,-0.14252 -0.14801,-0.25973 -0.22851,-0.38282 z m -21.54883,1.23438 c -1.24533,0.47526 -2.51744,0.86618 -3.87696,0.97461 0.10523,0.19079 0.2339,0.35462 0.39649,0.47656 0.192,0.144 0.42331,0.24106 0.69531,0.28906 0.288,0.048 0.60894,0.0723 0.96094,0.0723 0.352,0 0.69525,-0.0337 1.03125,-0.0977 0.352,-0.048 0.61697,-0.0871 0.79297,-0.11914 z m -75.57422,0.54687 c 0.10391,0.0981 0.21275,0.19385 0.32812,0.28125 0.528,0.4 1.1511,0.69472 1.8711,0.88672 0.0424,0.0111 0.09,0.015 0.13281,0.0254 -0.72506,-0.49253 -1.50394,-0.89865 -2.33203,-1.19336 z m 68.33008,1.04493 c -0.30683,0.0495 -0.61392,0.0971 -0.91992,0.15039 -0.44887,0.0781 -0.89871,0.15076 -1.34766,0.22851 0.0575,0.001 0.10735,0.01 0.16601,0.01 0.93798,0 1.63028,-0.1341 2.10157,-0.38867 z" />
      <path
         id="path20"
         transform="translate(-147.41384,-92.525727)"
         d="m 569.06641,160.17383 c -0.45112,0.0121 -0.90239,0.0241 -1.35352,0.0371 l -0.85742,0.85742 c 0,0 -0.21889,0.24729 -0.46289,0.24219 -0.238,-0.005 -0.4668,-0.24219 -0.4668,-0.24219 l -0.80859,-0.80664 c -0.43573,0.006 -0.87094,0.01 -1.30664,0.008 l 2.25195,2.25195 c 0.182,0.1816 0.4762,0.1816 0.6582,0 z" />
      <path
         d="m 24.0051,372.081 0.0318,0.762 c 0.5035,-0.593 1.1827,-0.889 2.0376,-0.889 0.9606,0 1.6144,0.368 1.9614,1.105 0.2285,-0.33 0.5247,-0.597 0.8887,-0.8 0.3681,-0.203 0.8019,-0.305 1.3012,-0.305 1.5065,0 2.2725,0.798 2.2979,2.393 v 4.602 h -1.1743 v -4.532 c 0,-0.491 -0.1122,-0.857 -0.3365,-1.098 -0.2242,-0.245 -0.6009,-0.368 -1.1298,-0.368 -0.4359,0 -0.7977,0.131 -1.0855,0.393 -0.2878,0.258 -0.4549,0.608 -0.5015,1.048 v 4.557 h -1.1806 v -4.5 c 0,-0.999 -0.4888,-1.498 -1.4663,-1.498 -0.7702,0 -1.2971,0.328 -1.5806,0.984 v 5.014 h -1.1743 v -6.868 z m 9.9849,3.371 c 0,-0.673 0.1312,-1.278 0.3935,-1.816 0.2666,-0.537 0.6348,-0.952 1.1045,-1.244 0.474,-0.292 1.0135,-0.438 1.6187,-0.438 0.9352,0 1.6906,0.324 2.2661,0.971 0.5798,0.648 0.8696,1.509 0.8696,2.584 v 0.082 c 0,0.669 -0.129,1.27 -0.3872,1.803 -0.2539,0.529 -0.6199,0.942 -1.0981,1.238 -0.474,0.296 -1.0199,0.444 -1.6377,0.444 -0.931,0 -1.6864,-0.323 -2.2661,-0.971 -0.5755,-0.647 -0.8633,-1.504 -0.8633,-2.571 z m 1.1807,0.139 c 0,0.762 0.1756,1.374 0.5268,1.835 0.3555,0.461 0.8294,0.692 1.4219,0.692 0.5967,0 1.0706,-0.233 1.4219,-0.698 0.3512,-0.47 0.5268,-1.126 0.5268,-1.968 0,-0.753 -0.1798,-1.363 -0.5395,-1.828 -0.3555,-0.47 -0.8295,-0.705 -1.4219,-0.705 -0.5798,0 -1.0474,0.231 -1.4028,0.692 -0.3555,0.461 -0.5332,1.121 -0.5332,1.98 z m 7.6552,-3.51 0.0381,0.863 c 0.5248,-0.66 1.2103,-0.99 2.0567,-0.99 1.4515,0 2.1835,0.819 2.1962,2.457 v 4.538 h -1.1743 v -4.545 c -0.0042,-0.495 -0.1185,-0.861 -0.3427,-1.098 -0.2201,-0.237 -0.565,-0.355 -1.0347,-0.355 -0.3809,0 -0.7152,0.101 -1.0029,0.304 -0.2878,0.204 -0.5121,0.47 -0.6729,0.8 v 4.894 h -1.1743 v -6.868 z"
         fill="#0c0b0b"
         id="path22" />
      <path
         d="m 8.27555,345.338 c 0,1.375 -0.23486,2.397 -0.70459,3.065 -0.46973,0.669 -1.20394,1.003 -2.20264,1.003 -0.986,0 -1.71598,-0.325 -2.18994,-0.977 -0.47396,-0.656 -0.7194,-1.634 -0.73633,-2.933 v -1.568 c 0,-1.358 0.23487,-2.367 0.70459,-3.027 0.46973,-0.661 1.20606,-0.991 2.20899,-0.991 0.99447,0 1.72656,0.32 2.19629,0.959 0.46972,0.635 0.71094,1.616 0.72363,2.945 z m -1.17432,-1.606 c 0,-0.995 -0.13964,-1.719 -0.41894,-2.171 -0.2793,-0.457 -0.72152,-0.686 -1.32666,-0.686 -0.60091,0 -1.0389,0.227 -1.31397,0.679 -0.27506,0.453 -0.41683,1.149 -0.42529,2.089 v 1.879 c 0,0.998 0.14388,1.737 0.43164,2.215 0.29199,0.474 0.7321,0.711 1.32031,0.711 0.57976,0 1.00928,-0.224 1.28858,-0.673 0.28353,-0.449 0.43164,-1.155 0.44433,-2.12 z"
         fill="#0c0b0b"
         id="path24" />
      <path
         d="M 6.33952,304.353 H 5.15885 v -7.827 l -2.36767,0.87 v -1.066 l 3.36425,-1.264 h 0.18409 z"
         fill="#0c0b0b"
         id="path26" />
      <path
         d="M 8.5358,259.427 H 2.48014 v -0.845 l 3.19922,-3.554 c 0.47396,-0.538 0.7998,-0.974 0.97754,-1.308 0.18196,-0.339 0.27295,-0.688 0.27295,-1.047 0,-0.483 -0.146,-0.878 -0.43799,-1.187 -0.29199,-0.309 -0.68132,-0.464 -1.16797,-0.464 -0.58398,0 -1.0389,0.167 -1.36475,0.502 -0.32161,0.33 -0.48242,0.791 -0.48242,1.383 H 2.30241 c 0,-0.85 0.27295,-1.538 0.81884,-2.063 0.55013,-0.524 1.28435,-0.787 2.20264,-0.787 0.85905,0 1.53825,0.227 2.0376,0.68 0.49935,0.448 0.74902,1.047 0.74902,1.796 0,0.91 -0.57975,1.993 -1.73926,3.25 l -2.47558,2.685 H 8.5358 Z"
         fill="#0c0b0b"
         id="path28" />
      <path
         d="m 4.18766,209.308 h 0.88232 c 0.55437,-0.009 0.99024,-0.155 1.30762,-0.438 0.31738,-0.284 0.47608,-0.667 0.47608,-1.149 0,-1.084 -0.53955,-1.625 -1.61866,-1.625 -0.50781,0 -0.91406,0.146 -1.21875,0.438 -0.30045,0.288 -0.45068,0.671 -0.45068,1.149 H 2.39127 c 0,-0.732 0.26661,-1.34 0.79981,-1.822 0.53743,-0.487 1.21875,-0.73 2.04394,-0.73 0.87175,0 1.55518,0.231 2.0503,0.692 0.49511,0.461 0.74267,1.102 0.74267,1.923 0,0.402 -0.13118,0.792 -0.39355,1.168 -0.25814,0.377 -0.61149,0.658 -1.06006,0.844 0.50781,0.161 0.89925,0.428 1.17432,0.8 0.27929,0.373 0.41894,0.828 0.41894,1.365 0,0.829 -0.27083,1.487 -0.8125,1.974 -0.54167,0.487 -1.24626,0.73 -2.11377,0.73 -0.86751,0 -1.57422,-0.235 -2.12012,-0.705 -0.54166,-0.469 -0.8125,-1.089 -0.8125,-1.859 h 1.18067 c 0,0.486 0.15869,0.876 0.47607,1.168 0.31739,0.292 0.74268,0.438 1.27588,0.438 0.56706,0 1.00081,-0.149 1.30127,-0.445 0.30046,-0.296 0.45068,-0.721 0.45068,-1.276 0,-0.537 -0.16503,-0.95 -0.49511,-1.237 -0.33008,-0.288 -0.80616,-0.436 -1.42823,-0.445 H 4.18766 Z"
         fill="#0c0b0b"
         id="path30" />
      <path
         d="m 7.43766,166.47 h 1.28223 v 0.958 H 7.43766 v 2.146 H 6.257 v -2.146 H 2.0485 v -0.692 l 4.13867,-6.405 h 1.25049 z m -4.05615,0 H 6.257 v -4.533 l -0.13965,0.254 z"
         fill="#0c0b0b"
         id="path32" />
      <path
         d="m 3.01969,120.013 0.46973,-4.608 h 4.73535 v 1.086 H 4.486 l -0.2793,2.52 c 0.4528,-0.267 0.96696,-0.4 1.54248,-0.4 0.84213,0 1.51075,0.279 2.00586,0.838 0.49512,0.554 0.74268,1.305 0.74268,2.253 0,0.952 -0.25814,1.703 -0.77442,2.253 -0.51204,0.546 -1.22932,0.819 -2.15185,0.819 -0.81673,0 -1.48324,-0.226 -1.99951,-0.679 -0.51628,-0.453 -0.81039,-1.079 -0.88233,-1.879 h 1.11084 c 0.07194,0.529 0.26026,0.929 0.56494,1.2 0.30469,0.266 0.70671,0.4 1.20606,0.4 0.5459,0 0.97331,-0.186 1.28223,-0.559 0.31315,-0.372 0.46972,-0.886 0.46972,-1.542 0,-0.618 -0.16927,-1.113 -0.50781,-1.486 -0.33431,-0.376 -0.78076,-0.565 -1.33936,-0.565 -0.51204,0 -0.91406,0.112 -1.20605,0.337 l -0.31104,0.254 z"
         fill="#0c0b0b"
         id="path34" />
      <path
         d="m 96.5083,370.418 v 1.663 h 1.2822 v 0.908 h -1.2822 v 4.259 c 0,0.275 0.0571,0.483 0.1714,0.622 0.1142,0.136 0.3089,0.203 0.584,0.203 0.1354,0 0.3216,-0.025 0.5586,-0.076 v 0.952 c -0.309,0.085 -0.6094,0.127 -0.9014,0.127 -0.5247,0 -0.9204,-0.158 -1.187,-0.476 -0.2666,-0.317 -0.3999,-0.768 -0.3999,-1.352 v -4.259 h -1.2505 v -0.908 h 1.2505 v -1.663 z m 6.8997,7.852 c -0.457,0.538 -1.128,0.806 -2.012,0.806 -0.732,0 -1.291,-0.211 -1.6758,-0.634 -0.3808,-0.428 -0.5734,-1.058 -0.5776,-1.892 v -4.469 h 1.1744 v 4.437 c 0,1.041 0.423,1.562 1.269,1.562 0.898,0 1.494,-0.335 1.79,-1.003 v -4.996 h 1.175 v 6.868 h -1.117 z m 5.783,0.806 c -0.931,0 -1.689,-0.304 -2.273,-0.914 -0.584,-0.613 -0.876,-1.432 -0.876,-2.456 v -0.216 c 0,-0.681 0.13,-1.289 0.388,-1.822 0.262,-0.537 0.626,-0.956 1.091,-1.257 0.47,-0.304 0.978,-0.457 1.524,-0.457 0.893,0 1.587,0.294 2.082,0.883 0.495,0.588 0.743,1.43 0.743,2.526 v 0.489 h -4.653 c 0.017,0.677 0.214,1.225 0.59,1.644 0.381,0.414 0.863,0.622 1.447,0.622 0.415,0 0.766,-0.085 1.054,-0.254 0.288,-0.169 0.54,-0.394 0.755,-0.673 l 0.718,0.559 c -0.576,0.884 -1.439,1.326 -2.59,1.326 z m -0.146,-6.157 c -0.474,0 -0.872,0.174 -1.193,0.521 -0.322,0.342 -0.521,0.825 -0.597,1.447 h 3.44 v -0.089 c -0.034,-0.597 -0.194,-1.058 -0.482,-1.384 -0.288,-0.33 -0.677,-0.495 -1.168,-0.495 z"
         fill="#0c0b0b"
         id="path36" />
      <path
         d="m 164.88,377.331 1.32,-5.25 h 1.175 l -2,6.868 h -0.952 l -1.67,-5.205 -1.625,5.205 h -0.952 l -1.993,-6.868 h 1.168 l 1.352,5.142 1.6,-5.142 h 0.946 z m 6.544,1.745 c -0.931,0 -1.688,-0.304 -2.272,-0.914 -0.584,-0.613 -0.876,-1.432 -0.876,-2.456 v -0.216 c 0,-0.681 0.129,-1.289 0.387,-1.822 0.262,-0.537 0.626,-0.956 1.092,-1.257 0.47,-0.304 0.977,-0.457 1.523,-0.457 0.893,0 1.587,0.294 2.082,0.883 0.495,0.588 0.743,1.43 0.743,2.526 v 0.489 h -4.653 c 0.017,0.677 0.214,1.225 0.591,1.644 0.38,0.414 0.863,0.622 1.447,0.622 0.415,0 0.766,-0.085 1.054,-0.254 0.287,-0.169 0.539,-0.394 0.755,-0.673 l 0.717,0.559 c -0.575,0.884 -1.439,1.326 -2.59,1.326 z m -0.146,-6.157 c -0.474,0 -0.871,0.174 -1.193,0.521 -0.322,0.342 -0.521,0.825 -0.597,1.447 h 3.441 v -0.089 c -0.034,-0.597 -0.195,-1.058 -0.483,-1.384 -0.287,-0.33 -0.677,-0.495 -1.168,-0.495 z m 3.904,2.539 c 0,-1.054 0.25,-1.9 0.749,-2.539 0.5,-0.643 1.153,-0.965 1.962,-0.965 0.804,0 1.44,0.275 1.91,0.825 v -3.58 h 1.175 v 9.75 h -1.08 l -0.057,-0.736 c -0.469,0.576 -1.123,0.863 -1.961,0.863 -0.796,0 -1.445,-0.326 -1.949,-0.977 -0.499,-0.652 -0.749,-1.503 -0.749,-2.552 z m 1.174,0.133 c 0,0.779 0.161,1.388 0.483,1.829 0.321,0.44 0.766,0.66 1.333,0.66 0.745,0 1.288,-0.335 1.631,-1.003 v -3.155 c -0.351,-0.647 -0.891,-0.971 -1.618,-0.971 -0.576,0 -1.025,0.222 -1.346,0.666 -0.322,0.445 -0.483,1.103 -0.483,1.974 z"
         fill="#0c0b0b"
         id="path38" />
      <path
         d="m 231.246,370.418 v 1.663 h 1.282 v 0.908 h -1.282 v 4.259 c 0,0.275 0.057,0.483 0.171,0.622 0.114,0.136 0.309,0.203 0.584,0.203 0.135,0 0.322,-0.025 0.559,-0.076 v 0.952 c -0.309,0.085 -0.61,0.127 -0.902,0.127 -0.525,0 -0.92,-0.158 -1.187,-0.476 -0.266,-0.317 -0.4,-0.768 -0.4,-1.352 v -4.259 h -1.25 v -0.908 h 1.25 v -1.663 z m 3.834,2.495 c 0.52,-0.639 1.197,-0.959 2.031,-0.959 1.451,0 2.183,0.819 2.196,2.457 v 4.538 h -1.174 v -4.545 c -0.004,-0.495 -0.119,-0.861 -0.343,-1.098 -0.22,-0.237 -0.565,-0.355 -1.035,-0.355 -0.38,0 -0.715,0.101 -1.003,0.304 -0.287,0.204 -0.512,0.47 -0.672,0.8 v 4.894 h -1.175 v -9.75 h 1.175 z m 10.226,5.357 c -0.457,0.538 -1.128,0.806 -2.013,0.806 -0.732,0 -1.29,-0.211 -1.675,-0.634 -0.381,-0.428 -0.574,-1.058 -0.578,-1.892 v -4.469 h 1.174 v 4.437 c 0,1.041 0.424,1.562 1.27,1.562 0.897,0 1.494,-0.335 1.79,-1.003 v -4.996 h 1.174 v 6.868 h -1.117 z"
         fill="#0c0b0b"
         id="path40" />
      <path
         d="m 294.114,378.949 v -5.96 h -1.086 v -0.908 h 1.086 v -0.704 c 0,-0.737 0.197,-1.306 0.59,-1.708 0.394,-0.402 0.95,-0.603 1.67,-0.603 0.27,0 0.539,0.036 0.806,0.108 l -0.064,0.952 c -0.199,-0.038 -0.41,-0.057 -0.635,-0.057 -0.38,0 -0.675,0.112 -0.882,0.336 -0.207,0.22 -0.311,0.538 -0.311,0.953 v 0.723 h 1.466 v 0.908 h -1.466 v 5.96 z m 7.261,-5.814 c -0.177,-0.03 -0.37,-0.045 -0.577,-0.045 -0.77,0 -1.293,0.328 -1.568,0.984 v 4.875 h -1.174 v -6.868 h 1.142 l 0.019,0.794 c 0.385,-0.614 0.931,-0.921 1.638,-0.921 0.228,0 0.402,0.03 0.52,0.089 z m 2.362,5.814 h -1.175 v -6.868 h 1.175 z m -1.27,-8.69 c 0,-0.19 0.057,-0.351 0.172,-0.482 0.118,-0.131 0.292,-0.197 0.52,-0.197 0.229,0 0.402,0.066 0.521,0.197 0.118,0.131 0.177,0.292 0.177,0.482 0,0.191 -0.059,0.35 -0.177,0.476 -0.119,0.127 -0.292,0.191 -0.521,0.191 -0.228,0 -0.402,-0.064 -0.52,-0.191 -0.115,-0.126 -0.172,-0.285 -0.172,-0.476 z"
         fill="#0c0b0b"
         id="path42" />
      <path
         d="m 354.45,377.128 c 0,-0.318 -0.121,-0.563 -0.362,-0.737 -0.237,-0.177 -0.654,-0.33 -1.25,-0.457 -0.593,-0.127 -1.065,-0.279 -1.416,-0.457 -0.347,-0.178 -0.605,-0.389 -0.774,-0.635 -0.165,-0.245 -0.248,-0.537 -0.248,-0.876 0,-0.562 0.237,-1.038 0.711,-1.428 0.478,-0.389 1.088,-0.584 1.828,-0.584 0.779,0 1.409,0.201 1.892,0.603 0.486,0.402 0.73,0.916 0.73,1.543 h -1.181 c 0,-0.322 -0.137,-0.599 -0.412,-0.832 -0.271,-0.233 -0.614,-0.349 -1.029,-0.349 -0.427,0 -0.762,0.093 -1.003,0.279 -0.241,0.187 -0.362,0.43 -0.362,0.73 0,0.284 0.113,0.498 0.337,0.641 0.224,0.144 0.628,0.282 1.212,0.413 0.589,0.131 1.065,0.288 1.429,0.47 0.363,0.182 0.632,0.402 0.806,0.66 0.177,0.254 0.266,0.565 0.266,0.933 0,0.614 -0.245,1.107 -0.736,1.479 -0.491,0.368 -1.128,0.552 -1.911,0.552 -0.55,0 -1.036,-0.097 -1.46,-0.292 -0.423,-0.194 -0.755,-0.465 -0.996,-0.812 -0.237,-0.351 -0.356,-0.73 -0.356,-1.136 h 1.175 c 0.021,0.393 0.177,0.706 0.469,0.939 0.297,0.229 0.686,0.343 1.168,0.343 0.445,0 0.8,-0.089 1.067,-0.267 0.271,-0.182 0.406,-0.423 0.406,-0.723 z m 6.944,1.821 c -0.067,-0.135 -0.122,-0.376 -0.165,-0.723 -0.546,0.567 -1.197,0.85 -1.955,0.85 -0.677,0 -1.233,-0.19 -1.669,-0.571 -0.432,-0.385 -0.648,-0.872 -0.648,-1.46 0,-0.715 0.271,-1.269 0.813,-1.663 0.546,-0.398 1.312,-0.597 2.298,-0.597 h 1.142 v -0.539 c 0,-0.411 -0.123,-0.737 -0.368,-0.978 -0.245,-0.245 -0.607,-0.368 -1.085,-0.368 -0.419,0 -0.771,0.106 -1.054,0.317 -0.284,0.212 -0.425,0.468 -0.425,0.768 h -1.181 c 0,-0.342 0.121,-0.672 0.362,-0.99 0.245,-0.321 0.575,-0.575 0.99,-0.761 0.419,-0.187 0.878,-0.28 1.377,-0.28 0.792,0 1.412,0.199 1.86,0.597 0.449,0.393 0.682,0.937 0.699,1.631 v 3.161 c 0,0.631 0.08,1.132 0.241,1.505 v 0.101 z m -1.948,-0.895 c 0.368,0 0.717,-0.095 1.047,-0.285 0.33,-0.191 0.569,-0.438 0.717,-0.743 v -1.409 h -0.92 c -1.439,0 -2.158,0.421 -2.158,1.263 0,0.368 0.122,0.656 0.368,0.863 0.245,0.208 0.56,0.311 0.946,0.311 z m 6.373,-7.636 v 1.663 h 1.282 v 0.908 h -1.282 v 4.259 c 0,0.275 0.057,0.483 0.171,0.622 0.114,0.136 0.309,0.203 0.584,0.203 0.135,0 0.322,-0.025 0.559,-0.076 v 0.952 c -0.309,0.085 -0.61,0.127 -0.902,0.127 -0.525,0 -0.92,-0.158 -1.187,-0.476 -0.266,-0.317 -0.4,-0.768 -0.4,-1.352 v -4.259 h -1.25 v -0.908 h 1.25 v -1.663 z"
         fill="#0c0b0b"
         id="path44" />
      <path
         d="m 418.333,377.128 c 0,-0.318 -0.12,-0.563 -0.361,-0.737 -0.237,-0.177 -0.654,-0.33 -1.251,-0.457 -0.592,-0.127 -1.064,-0.279 -1.415,-0.457 -0.347,-0.178 -0.605,-0.389 -0.775,-0.635 -0.165,-0.245 -0.247,-0.537 -0.247,-0.876 0,-0.562 0.237,-1.038 0.711,-1.428 0.478,-0.389 1.087,-0.584 1.828,-0.584 0.778,0 1.409,0.201 1.891,0.603 0.487,0.402 0.73,0.916 0.73,1.543 h -1.18 c 0,-0.322 -0.138,-0.599 -0.413,-0.832 -0.271,-0.233 -0.614,-0.349 -1.028,-0.349 -0.428,0 -0.762,0.093 -1.003,0.279 -0.241,0.187 -0.362,0.43 -0.362,0.73 0,0.284 0.112,0.498 0.336,0.641 0.225,0.144 0.629,0.282 1.213,0.413 0.588,0.131 1.064,0.288 1.428,0.47 0.364,0.182 0.633,0.402 0.806,0.66 0.178,0.254 0.267,0.565 0.267,0.933 0,0.614 -0.246,1.107 -0.737,1.479 -0.49,0.368 -1.127,0.552 -1.91,0.552 -0.55,0 -1.037,-0.097 -1.46,-0.292 -0.423,-0.194 -0.755,-0.465 -0.997,-0.812 -0.237,-0.351 -0.355,-0.73 -0.355,-1.136 h 1.174 c 0.021,0.393 0.178,0.706 0.47,0.939 0.296,0.229 0.685,0.343 1.168,0.343 0.444,0 0.8,-0.089 1.066,-0.267 0.271,-0.182 0.406,-0.423 0.406,-0.723 z m 6.945,1.142 c -0.457,0.538 -1.128,0.806 -2.012,0.806 -0.732,0 -1.291,-0.211 -1.676,-0.634 -0.381,-0.428 -0.574,-1.058 -0.578,-1.892 v -4.469 h 1.175 v 4.437 c 0,1.041 0.423,1.562 1.269,1.562 0.897,0 1.494,-0.335 1.79,-1.003 v -4.996 h 1.174 v 6.868 h -1.117 z m 4.043,-6.189 0.038,0.863 c 0.525,-0.66 1.211,-0.99 2.057,-0.99 1.452,0 2.184,0.819 2.196,2.457 v 4.538 h -1.174 v -4.545 c -0.004,-0.495 -0.119,-0.861 -0.343,-1.098 -0.22,-0.237 -0.565,-0.355 -1.034,-0.355 -0.381,0 -0.716,0.101 -1.003,0.304 -0.288,0.204 -0.512,0.47 -0.673,0.8 v 4.894 h -1.175 v -6.868 z"
         fill="#0c0b0b"
         id="path46" />
      <path
         d="M 35.2021,346 H 426.202"
         stroke="#f5f5f7"
         id="path48" />
      <path
         d="M 35.2332,301 H 426.233"
         stroke="#f5f5f7"
         id="path50" />
      <path
         d="M 35.2021,256 H 426.202"
         stroke="#f5f5f7"
         id="path52" />
      <path
         d="M 35.2021,211 H 426.202"
         stroke="#f5f5f7"
         id="path54" />
      <path
         d="M 35.2021,166 H 426.202"
         stroke="#f5f5f7"
         id="path56" />
      <path
         d="M 35.2021,121 H 426.202"
         stroke="#f5f5f7"
         id="path58" />
      <g
         filter="url(#filter0_d)"
         id="g62">
        <path
           d="m 110.845,278.199 c 0,3.053 -2.475,5.529 -5.529,5.529 -3.053,0 -5.5288,-2.476 -5.5288,-5.529 0,-3.054 2.4758,-5.529 5.5288,-5.529 3.054,0 5.529,2.475 5.529,5.529 z"
           fill="#0c0b0b"
           id="path60" />
      </g>
      <g
         opacity="0.3"
         filter="url(#filter1_f)"
         id="g66">
        <path
           fill-rule="evenodd"
           clip-rule="evenodd"
           d="m 94.1003,250.684 h 35.3357 c 2.21,0 4,1.791 4,4 v 9.858 c 0,2.21 -1.79,4 -4,4 h -13.177 l -0.648,0.524 c -0.147,0.118 -0.356,0.118 -0.503,0 l -0.648,-0.524 H 94.1003 c -2.2091,0 -4,-1.79 -4,-4 v -9.858 c 0,-2.209 1.7909,-4 4,-4 z"
           fill="#0c0b0b"
           id="path64" />
      </g>
      <path
         fill-rule="evenodd"
         clip-rule="evenodd"
         d="m 83.9961,241.281 h 41.9999 c 2.209,0 4,1.79 4,4 v 14 c 0,2.209 -1.791,4 -4,4 h -14 l -6.74,5.776 c -0.149,0.129 -0.37,0.129 -0.52,0 l -6.7399,-5.776 h -14 c -2.2091,0 -4,-1.791 -4,-4 v -14 c 0,-2.21 1.7909,-4 4,-4 z"
         fill="#ffffff"
         id="path68" />
      <path
         d="m 94.5639,250.037 -1.4,0.434 c -0.14,-0.094 -0.28,-0.224 -0.42,-0.392 -0.14,-0.168 -0.21,-0.402 -0.21,-0.7 0,-0.56 0.3407,-0.952 1.022,-1.176 l 1.568,-0.532 h 0.518 c 0.4014,0 0.7187,0.116 0.952,0.35 0.2334,0.233 0.35,0.55 0.35,0.952 v 7.294 c -0.1026,0.018 -0.2566,0.042 -0.462,0.07 -0.196,0.037 -0.3966,0.056 -0.602,0.056 -0.2053,0 -0.392,-0.014 -0.56,-0.042 -0.1586,-0.028 -0.294,-0.084 -0.406,-0.168 -0.112,-0.084 -0.2006,-0.196 -0.266,-0.336 -0.056,-0.15 -0.084,-0.341 -0.084,-0.574 z m 5.6121,7.266 c -0.159,0.205 -0.3313,0.354 -0.518,0.448 -0.1773,0.093 -0.3966,0.14 -0.658,0.14 -0.4106,0 -0.7606,-0.117 -1.05,-0.35 0.2054,-0.579 0.378,-1.172 0.518,-1.778 0.14,-0.616 0.2567,-1.172 0.35,-1.666 0.1587,-0.084 0.35,-0.154 0.574,-0.21 0.224,-0.066 0.448,-0.098 0.672,-0.098 0.289,0 0.541,0.065 0.756,0.196 0.224,0.13 0.336,0.364 0.336,0.7 0,0.196 -0.028,0.415 -0.084,0.658 -0.056,0.233 -0.131,0.471 -0.224,0.714 -0.093,0.233 -0.201,0.462 -0.322,0.686 -0.112,0.224 -0.229,0.41 -0.35,0.56 z m 5.018,-0.798 c -0.429,0 -0.821,-0.033 -1.176,-0.098 -0.345,-0.066 -0.644,-0.164 -0.896,-0.294 -0.252,-0.131 -0.448,-0.29 -0.588,-0.476 -0.14,-0.196 -0.21,-0.42 -0.21,-0.672 0,-0.262 0.075,-0.481 0.224,-0.658 0.15,-0.178 0.318,-0.318 0.504,-0.42 0.262,0.196 0.542,0.368 0.84,0.518 0.299,0.14 0.677,0.21 1.134,0.21 0.439,0 0.752,-0.098 0.938,-0.294 0.187,-0.196 0.28,-0.434 0.28,-0.714 0,-0.271 -0.084,-0.495 -0.252,-0.672 -0.158,-0.178 -0.438,-0.266 -0.84,-0.266 -0.252,0 -0.462,0.028 -0.63,0.084 -0.168,0.056 -0.359,0.135 -0.574,0.238 -0.457,-0.019 -0.821,-0.14 -1.092,-0.364 -0.261,-0.234 -0.392,-0.588 -0.392,-1.064 0,-0.028 0,-0.061 0,-0.098 0,-0.047 0.005,-0.136 0.014,-0.266 l 0.168,-2.128 c 0.028,-0.402 0.154,-0.719 0.378,-0.952 0.224,-0.234 0.537,-0.35 0.938,-0.35 h 4.032 c 0.056,0.102 0.112,0.238 0.168,0.406 0.056,0.168 0.084,0.345 0.084,0.532 0,0.354 -0.079,0.606 -0.238,0.756 -0.158,0.149 -0.359,0.224 -0.602,0.224 h -2.688 l -0.098,1.316 c 0.178,-0.047 0.355,-0.089 0.532,-0.126 0.187,-0.038 0.42,-0.056 0.7,-0.056 0.486,0 0.906,0.074 1.26,0.224 0.355,0.14 0.644,0.336 0.868,0.588 0.234,0.252 0.402,0.546 0.504,0.882 0.112,0.336 0.168,0.695 0.168,1.078 0,0.382 -0.065,0.751 -0.196,1.106 -0.13,0.354 -0.336,0.667 -0.616,0.938 -0.28,0.261 -0.639,0.471 -1.078,0.63 -0.429,0.158 -0.952,0.238 -1.568,0.238 z m 11.463,-0.238 c -0.094,0.028 -0.243,0.056 -0.448,0.084 -0.196,0.028 -0.402,0.042 -0.616,0.042 -0.206,0 -0.392,-0.014 -0.56,-0.042 -0.159,-0.028 -0.294,-0.084 -0.406,-0.168 -0.112,-0.084 -0.201,-0.196 -0.266,-0.336 -0.056,-0.15 -0.084,-0.341 -0.084,-0.574 v -3.108 c 0,-0.383 -0.098,-0.649 -0.294,-0.798 -0.187,-0.159 -0.42,-0.238 -0.7,-0.238 -0.187,0 -0.364,0.023 -0.532,0.07 -0.168,0.046 -0.304,0.102 -0.406,0.168 v 4.9 c -0.094,0.028 -0.243,0.056 -0.448,0.084 -0.196,0.028 -0.402,0.042 -0.616,0.042 -0.206,0 -0.392,-0.014 -0.56,-0.042 -0.159,-0.028 -0.294,-0.084 -0.406,-0.168 -0.112,-0.084 -0.201,-0.196 -0.266,-0.336 -0.056,-0.15 -0.084,-0.341 -0.084,-0.574 v -8.12 c 0.102,-0.019 0.252,-0.042 0.448,-0.07 0.205,-0.038 0.41,-0.056 0.616,-0.056 0.205,0 0.387,0.014 0.546,0.042 0.168,0.028 0.308,0.084 0.42,0.168 0.112,0.084 0.196,0.2 0.252,0.35 0.065,0.14 0.098,0.326 0.098,0.56 v 1.372 c 0.121,-0.047 0.303,-0.098 0.546,-0.154 0.252,-0.066 0.527,-0.098 0.826,-0.098 0.924,0 1.642,0.233 2.156,0.7 0.522,0.457 0.784,1.143 0.784,2.058 z"
         fill="#0c0b0b"
         id="path70" />
      <g
         filter="url(#filter2_d)"
         id="g74">
        <path
           d="m 178.213,234.752 c 0,3.053 -2.475,5.529 -5.529,5.529 -3.053,0 -5.529,-2.476 -5.529,-5.529 0,-3.054 2.476,-5.529 5.529,-5.529 3.054,0 5.529,2.475 5.529,5.529 z"
           fill="#0c0b0b"
           id="path72" />
      </g>
      <g
         opacity="0.3"
         filter="url(#filter3_f)"
         id="g78">
        <path
           fill-rule="evenodd"
           clip-rule="evenodd"
           d="m 161.469,207.237 h 35.336 c 2.209,0 4,1.791 4,4 v 9.858 c 0,2.209 -1.791,4 -4,4 h -13.178 l -0.648,0.524 c -0.147,0.118 -0.356,0.118 -0.503,0 l -0.648,-0.524 h -20.359 c -2.21,0 -4,-1.791 -4,-4 v -9.858 c 0,-2.209 1.79,-4 4,-4 z"
           fill="#0c0b0b"
           id="path76" />
      </g>
      <path
         fill-rule="evenodd"
         clip-rule="evenodd"
         d="m 151.364,197.833 h 42 c 2.209,0 4,1.791 4,4 v 14 c 0,2.209 -1.791,4 -4,4 h -14 l -6.739,5.777 c -0.15,0.129 -0.371,0.129 -0.521,0 l -6.74,-5.777 h -14 c -2.209,0 -4,-1.791 -4,-4 v -14 c 0,-2.209 1.791,-4 4,-4 z"
         fill="#ffffff"
         id="path80" />
      <path
         d="m 162.193,204.111 c 0.532,0 1.003,0.07 1.414,0.21 0.41,0.131 0.76,0.313 1.05,0.546 0.289,0.234 0.508,0.509 0.658,0.826 0.149,0.318 0.224,0.658 0.224,1.022 0,0.98 -0.556,1.914 -1.666,2.8 l -1.834,1.47 h 3.36 c 0.056,0.103 0.107,0.234 0.154,0.392 0.056,0.159 0.084,0.332 0.084,0.518 0,0.336 -0.075,0.579 -0.224,0.728 -0.15,0.14 -0.346,0.21 -0.588,0.21 h -4.858 c -0.206,-0.14 -0.369,-0.317 -0.49,-0.532 -0.112,-0.224 -0.168,-0.485 -0.168,-0.784 0,-0.317 0.065,-0.583 0.196,-0.798 0.13,-0.224 0.275,-0.401 0.434,-0.532 l 1.932,-1.652 c 0.242,-0.205 0.443,-0.387 0.602,-0.546 0.158,-0.168 0.284,-0.317 0.378,-0.448 0.102,-0.13 0.172,-0.252 0.21,-0.364 0.046,-0.112 0.07,-0.219 0.07,-0.322 0,-0.261 -0.117,-0.466 -0.35,-0.616 -0.224,-0.149 -0.504,-0.224 -0.84,-0.224 -0.374,0 -0.71,0.061 -1.008,0.182 -0.29,0.112 -0.532,0.234 -0.728,0.364 -0.159,-0.112 -0.29,-0.252 -0.392,-0.42 -0.103,-0.168 -0.154,-0.364 -0.154,-0.588 0,-0.485 0.228,-0.844 0.686,-1.078 0.457,-0.242 1.073,-0.364 1.848,-0.364 z m 6.295,9.744 c -0.159,0.206 -0.332,0.355 -0.518,0.448 -0.178,0.094 -0.397,0.14 -0.658,0.14 -0.411,0 -0.761,-0.116 -1.05,-0.35 0.205,-0.578 0.378,-1.171 0.518,-1.778 0.14,-0.616 0.256,-1.171 0.35,-1.666 0.158,-0.084 0.35,-0.154 0.574,-0.21 0.224,-0.065 0.448,-0.098 0.672,-0.098 0.289,0 0.541,0.066 0.756,0.196 0.224,0.131 0.336,0.364 0.336,0.7 0,0.196 -0.028,0.416 -0.084,0.658 -0.056,0.234 -0.131,0.472 -0.224,0.714 -0.094,0.234 -0.201,0.462 -0.322,0.686 -0.112,0.224 -0.229,0.411 -0.35,0.56 z m 5.018,-0.798 c -0.429,0 -0.821,-0.032 -1.176,-0.098 -0.345,-0.065 -0.644,-0.163 -0.896,-0.294 -0.252,-0.13 -0.448,-0.289 -0.588,-0.476 -0.14,-0.196 -0.21,-0.42 -0.21,-0.672 0,-0.261 0.075,-0.48 0.224,-0.658 0.149,-0.177 0.317,-0.317 0.504,-0.42 0.261,0.196 0.541,0.369 0.84,0.518 0.299,0.14 0.677,0.21 1.134,0.21 0.439,0 0.751,-0.098 0.938,-0.294 0.187,-0.196 0.28,-0.434 0.28,-0.714 0,-0.27 -0.084,-0.494 -0.252,-0.672 -0.159,-0.177 -0.439,-0.266 -0.84,-0.266 -0.252,0 -0.462,0.028 -0.63,0.084 -0.168,0.056 -0.359,0.136 -0.574,0.238 -0.457,-0.018 -0.821,-0.14 -1.092,-0.364 -0.261,-0.233 -0.392,-0.588 -0.392,-1.064 0,-0.028 0,-0.06 0,-0.098 0,-0.046 0.005,-0.135 0.014,-0.266 l 0.168,-2.128 c 0.028,-0.401 0.154,-0.718 0.378,-0.952 0.224,-0.233 0.537,-0.35 0.938,-0.35 h 4.032 c 0.056,0.103 0.112,0.238 0.168,0.406 0.056,0.168 0.084,0.346 0.084,0.532 0,0.355 -0.079,0.607 -0.238,0.756 -0.159,0.15 -0.359,0.224 -0.602,0.224 h -2.688 l -0.098,1.316 c 0.177,-0.046 0.355,-0.088 0.532,-0.126 0.187,-0.037 0.42,-0.056 0.7,-0.056 0.485,0 0.905,0.075 1.26,0.224 0.355,0.14 0.644,0.336 0.868,0.588 0.233,0.252 0.401,0.546 0.504,0.882 0.112,0.336 0.168,0.696 0.168,1.078 0,0.383 -0.065,0.752 -0.196,1.106 -0.131,0.355 -0.336,0.668 -0.616,0.938 -0.28,0.262 -0.639,0.472 -1.078,0.63 -0.429,0.159 -0.952,0.238 -1.568,0.238 z m 11.462,-0.238 c -0.093,0.028 -0.242,0.056 -0.448,0.084 -0.196,0.028 -0.401,0.042 -0.616,0.042 -0.205,0 -0.392,-0.014 -0.56,-0.042 -0.158,-0.028 -0.294,-0.084 -0.406,-0.168 -0.112,-0.084 -0.2,-0.196 -0.266,-0.336 -0.056,-0.149 -0.084,-0.34 -0.084,-0.574 v -3.108 c 0,-0.382 -0.098,-0.648 -0.294,-0.798 -0.186,-0.158 -0.42,-0.238 -0.7,-0.238 -0.186,0 -0.364,0.024 -0.532,0.07 -0.168,0.047 -0.303,0.103 -0.406,0.168 v 4.9 c -0.093,0.028 -0.242,0.056 -0.448,0.084 -0.196,0.028 -0.401,0.042 -0.616,0.042 -0.205,0 -0.392,-0.014 -0.56,-0.042 -0.158,-0.028 -0.294,-0.084 -0.406,-0.168 -0.112,-0.084 -0.2,-0.196 -0.266,-0.336 -0.056,-0.149 -0.084,-0.34 -0.084,-0.574 v -8.12 c 0.103,-0.018 0.252,-0.042 0.448,-0.07 0.206,-0.037 0.411,-0.056 0.616,-0.056 0.206,0 0.388,0.014 0.546,0.042 0.168,0.028 0.308,0.084 0.42,0.168 0.112,0.084 0.196,0.201 0.252,0.35 0.066,0.14 0.098,0.327 0.098,0.56 v 1.372 c 0.122,-0.046 0.304,-0.098 0.546,-0.154 0.252,-0.065 0.528,-0.098 0.826,-0.098 0.924,0 1.643,0.234 2.156,0.7 0.523,0.458 0.784,1.144 0.784,2.058 z"
         fill="#0c0b0b"
         id="path82" />
      <g
         filter="url(#filter4_d)"
         id="g86">
        <path
           d="m 305.981,165.044 c 0,3.053 -2.475,5.529 -5.529,5.529 -3.053,0 -5.529,-2.476 -5.529,-5.529 0,-3.054 2.476,-5.529 5.529,-5.529 3.054,0 5.529,2.475 5.529,5.529 z"
           fill="#0c0b0b"
           id="path84" />
      </g>
      <g
         opacity="0.3"
         filter="url(#filter5_f)"
         id="g90">
        <path
           fill-rule="evenodd"
           clip-rule="evenodd"
           d="m 289.237,137.529 h 35.336 c 2.209,0 4,1.791 4,4 v 9.858 c 0,2.209 -1.791,4 -4,4 h -13.178 l -0.648,0.524 c -0.147,0.118 -0.356,0.118 -0.503,0 l -0.648,-0.524 h -20.359 c -2.21,0 -4,-1.791 -4,-4 v -9.858 c 0,-2.209 1.79,-4 4,-4 z"
           fill="#0c0b0b"
           id="path88" />
      </g>
      <path
         fill-rule="evenodd"
         clip-rule="evenodd"
         d="m 279.132,128.125 h 42 c 2.209,0 4,1.791 4,4 v 14 c 0,2.21 -1.791,4 -4,4 h -14 l -6.739,5.777 c -0.15,0.129 -0.371,0.129 -0.521,0 l -6.74,-5.777 h -14 c -2.209,0 -4,-1.79 -4,-4 v -14 c 0,-2.209 1.791,-4 4,-4 z"
         fill="#ffffff"
         id="path92" />
      <path
         d="m 295.596,134.711 c 0.178,-0.056 0.378,-0.102 0.602,-0.14 0.234,-0.037 0.444,-0.056 0.63,-0.056 0.215,0 0.42,0.024 0.616,0.07 0.206,0.038 0.388,0.108 0.546,0.21 0.159,0.094 0.285,0.224 0.378,0.392 0.094,0.168 0.14,0.378 0.14,0.63 v 3.724 h 1.246 c 0.056,0.103 0.112,0.238 0.168,0.406 0.056,0.168 0.084,0.346 0.084,0.532 0,0.355 -0.079,0.607 -0.238,0.756 -0.158,0.15 -0.359,0.224 -0.602,0.224 h -0.658 v 1.652 c -0.102,0.019 -0.256,0.042 -0.462,0.07 -0.205,0.038 -0.401,0.056 -0.588,0.056 -0.205,0 -0.387,-0.009 -0.546,-0.028 -0.158,-0.018 -0.294,-0.06 -0.406,-0.126 -0.102,-0.074 -0.182,-0.177 -0.238,-0.308 -0.056,-0.13 -0.084,-0.308 -0.084,-0.532 v -0.784 h -3.514 c -0.214,-0.112 -0.401,-0.275 -0.56,-0.49 -0.149,-0.224 -0.224,-0.494 -0.224,-0.812 0,-0.177 0.024,-0.373 0.07,-0.588 0.047,-0.214 0.126,-0.401 0.238,-0.56 z m 0.714,2.198 h -0.042 l -1.862,2.632 h 1.904 z m 11.421,6.202 c -0.094,0.028 -0.243,0.056 -0.448,0.084 -0.196,0.028 -0.402,0.042 -0.616,0.042 -0.206,0 -0.392,-0.014 -0.56,-0.042 -0.159,-0.028 -0.294,-0.084 -0.406,-0.168 -0.112,-0.084 -0.201,-0.196 -0.266,-0.336 -0.056,-0.149 -0.084,-0.34 -0.084,-0.574 v -3.108 c 0,-0.382 -0.098,-0.648 -0.294,-0.798 -0.187,-0.158 -0.42,-0.238 -0.7,-0.238 -0.187,0 -0.364,0.024 -0.532,0.07 -0.168,0.047 -0.304,0.103 -0.406,0.168 v 4.9 c -0.094,0.028 -0.243,0.056 -0.448,0.084 -0.196,0.028 -0.402,0.042 -0.616,0.042 -0.206,0 -0.392,-0.014 -0.56,-0.042 -0.159,-0.028 -0.294,-0.084 -0.406,-0.168 -0.112,-0.084 -0.201,-0.196 -0.266,-0.336 -0.056,-0.149 -0.084,-0.34 -0.084,-0.574 v -8.12 c 0.102,-0.018 0.252,-0.042 0.448,-0.07 0.205,-0.037 0.41,-0.056 0.616,-0.056 0.205,0 0.387,0.014 0.546,0.042 0.168,0.028 0.308,0.084 0.42,0.168 0.112,0.084 0.196,0.201 0.252,0.35 0.065,0.14 0.098,0.327 0.098,0.56 v 1.372 c 0.121,-0.046 0.303,-0.098 0.546,-0.154 0.252,-0.065 0.527,-0.098 0.826,-0.098 0.924,0 1.642,0.234 2.156,0.7 0.522,0.458 0.784,1.144 0.784,2.058 z"
         fill="#0c0b0b"
         id="path94" />
      <path
         d="m 34.471,345.469 c -0.3814,0.399 -0.3666,1.032 0.0329,1.414 0.3995,0.381 1.0325,0.366 1.4138,-0.033 z m 205.935,-42.671 c 6.414,0 11.579,-2.249 15.739,-6.176 4.134,-3.904 7.24,-9.428 9.654,-15.944 4.823,-13.017 6.999,-30.318 8.879,-47.468 1.887,-17.222 3.477,-34.288 7.083,-47.067 1.801,-6.386 4.08,-11.596 7.074,-15.196 2.963,-3.561 6.619,-5.543 11.296,-5.543 v -2 c -5.351,0 -9.545,2.312 -12.833,6.264 -3.257,3.915 -5.63,9.438 -7.462,15.932 -3.663,12.983 -5.269,30.266 -7.146,47.392 -1.886,17.198 -4.044,34.246 -8.766,46.991 -2.358,6.364 -5.328,11.574 -9.152,15.184 -3.799,3.587 -8.476,5.631 -14.366,5.631 z m 59.725,-137.394 c 9.325,0 15.112,2.779 19.228,6.862 4.175,4.141 6.706,9.684 9.384,15.446 2.646,5.696 5.433,11.598 10.149,16.042 4.766,4.491 11.415,7.424 21.641,7.424 v -2 c -9.795,0 -15.929,-2.789 -20.27,-6.88 -4.391,-4.139 -7.036,-9.681 -9.706,-15.428 -2.64,-5.681 -5.312,-11.582 -9.79,-16.024 -4.536,-4.499 -10.851,-7.442 -20.636,-7.442 z m 60.402,45.774 c 19.525,0 29.645,11.03 37.934,22.332 4.115,5.611 7.853,11.408 12.013,15.736 4.203,4.372 8.985,7.414 15.288,7.414 v -2 c -5.555,0 -9.85,-2.644 -13.846,-6.8 -4.037,-4.2 -7.618,-9.773 -11.842,-15.533 -8.39,-11.438 -19.03,-23.149 -39.547,-23.149 z M 172.94,235.09 c 7.597,0 13.611,3.998 18.895,10.226 5.302,6.249 9.757,14.608 14.25,23.096 4.465,8.435 8.97,17.002 14.338,23.447 5.384,6.463 11.758,10.939 19.983,10.939 v -2 c -7.39,0 -13.255,-3.987 -18.446,-10.219 -5.207,-6.251 -9.613,-14.611 -14.108,-23.103 -4.467,-8.439 -9.022,-17.007 -14.492,-23.454 -5.487,-6.467 -12.008,-10.932 -20.42,-10.932 z M 35.9177,346.85 c 3.6904,-3.867 7.8255,-10.049 12.4241,-17.036 4.6221,-7.022 9.7489,-14.917 15.4695,-22.338 11.4914,-14.907 25.1189,-27.543 41.4137,-27.543 v -2 c -17.3374,0 -31.4963,13.403 -42.9977,28.322 -5.7758,7.493 -10.9471,15.457 -15.5561,22.46 -4.6326,7.038 -8.6617,13.046 -12.2002,16.754 z m 69.3073,-66.917 c 11.152,0 19.118,-2.856 25.264,-7.19 6.121,-4.315 10.369,-10.052 14.149,-15.674 3.815,-5.672 7.108,-11.143 11.394,-15.25 4.224,-4.048 9.381,-6.729 16.908,-6.729 v -2 c -8.102,0 -13.741,2.924 -18.291,7.285 -4.488,4.3 -7.946,10.04 -11.671,15.578 -3.759,5.59 -7.838,11.064 -13.641,15.156 -5.779,4.074 -13.334,6.824 -24.112,6.824 z"
         fill="#0c0b0b"
         id="path96" />
      <g
         filter="url(#filter6_d)"
         id="g100">
        <path
           d="m 40.8609,344.24 c 0,3.054 -2.4754,5.529 -5.5289,5.529 -3.0536,0 -5.529,-2.475 -5.529,-5.529 0,-3.053 2.4754,-5.529 5.529,-5.529 3.0535,0 5.5289,2.476 5.5289,5.529 z"
           fill="#0c0b0b"
           id="path98" />
      </g>
      <g
         opacity="0.3"
         filter="url(#filter7_f)"
         id="g104">
        <path
           fill-rule="evenodd"
           clip-rule="evenodd"
           d="m 24.1162,316.726 h 35.3361 c 2.2091,0 4,1.79 4,4 v 9.858 c 0,2.209 -1.7909,4 -4,4 H 46.2747 l -0.6481,0.523 c -0.1467,0.119 -0.3561,0.119 -0.5027,0 l -0.6482,-0.523 H 24.1162 c -2.2091,0 -4,-1.791 -4,-4 v -9.858 c 0,-2.21 1.7909,-4 4,-4 z"
           fill="#0c0b0b"
           id="path102" />
      </g>
      <path
         fill-rule="evenodd"
         clip-rule="evenodd"
         d="m 14.012,307.322 h 42 c 2.2091,0 4,1.791 4,4 v 14 c 0,2.209 -1.7909,4 -4,4 h -14 l -6.7397,5.777 c -0.1498,0.128 -0.3709,0.128 -0.5207,0 l -6.7396,-5.777 h -14 c -2.2092,0 -4,-1.791 -4,-4 v -14 c 0,-2.209 1.7908,-4 4,-4 z"
         fill="#ffffff"
         id="path106" />
      <path
         d="m 32.0721,318.066 c 0,-0.821 -0.1213,-1.456 -0.364,-1.904 -0.2333,-0.448 -0.5693,-0.672 -1.008,-0.672 -0.4386,0 -0.7746,0.224 -1.008,0.672 -0.224,0.448 -0.336,1.083 -0.336,1.904 0,0.821 0.112,1.461 0.336,1.918 0.2334,0.448 0.5694,0.672 1.008,0.672 0.4387,0 0.7747,-0.224 1.008,-0.672 0.2427,-0.457 0.364,-1.097 0.364,-1.918 z m 2.394,0 c 0,0.719 -0.0933,1.358 -0.28,1.918 -0.1866,0.56 -0.448,1.031 -0.784,1.414 -0.3266,0.373 -0.7233,0.658 -1.19,0.854 -0.4573,0.196 -0.9566,0.294 -1.498,0.294 -0.5506,0 -1.0593,-0.098 -1.526,-0.294 -0.4573,-0.196 -0.854,-0.481 -1.19,-0.854 -0.3266,-0.383 -0.5833,-0.854 -0.77,-1.414 -0.1773,-0.56 -0.266,-1.199 -0.266,-1.918 0,-0.719 0.0887,-1.353 0.266,-1.904 0.1867,-0.56 0.4434,-1.027 0.77,-1.4 0.336,-0.383 0.7327,-0.672 1.19,-0.868 0.4667,-0.196 0.9754,-0.294 1.526,-0.294 0.5414,0 1.0407,0.098 1.498,0.294 0.4667,0.196 0.8634,0.485 1.19,0.868 0.336,0.373 0.5974,0.84 0.784,1.4 0.1867,0.551 0.28,1.185 0.28,1.904 z m 8.1443,4.242 c -0.0934,0.028 -0.2427,0.056 -0.448,0.084 -0.196,0.028 -0.4014,0.042 -0.616,0.042 -0.2054,0 -0.392,-0.014 -0.56,-0.042 -0.1587,-0.028 -0.294,-0.084 -0.406,-0.168 -0.112,-0.084 -0.2007,-0.196 -0.266,-0.336 -0.056,-0.149 -0.084,-0.341 -0.084,-0.574 v -3.108 c 0,-0.383 -0.098,-0.649 -0.294,-0.798 -0.1867,-0.159 -0.42,-0.238 -0.7,-0.238 -0.1867,0 -0.364,0.023 -0.532,0.07 -0.168,0.047 -0.3034,0.103 -0.406,0.168 v 4.9 c -0.0934,0.028 -0.2427,0.056 -0.448,0.084 -0.196,0.028 -0.4014,0.042 -0.616,0.042 -0.2054,0 -0.392,-0.014 -0.56,-0.042 -0.1587,-0.028 -0.294,-0.084 -0.406,-0.168 -0.112,-0.084 -0.2007,-0.196 -0.266,-0.336 -0.056,-0.149 -0.084,-0.341 -0.084,-0.574 v -8.12 c 0.1026,-0.019 0.252,-0.042 0.448,-0.07 0.2053,-0.037 0.4106,-0.056 0.616,-0.056 0.2053,0 0.3873,0.014 0.546,0.042 0.168,0.028 0.308,0.084 0.42,0.168 0.112,0.084 0.196,0.201 0.252,0.35 0.0653,0.14 0.098,0.327 0.098,0.56 v 1.372 c 0.1213,-0.047 0.3033,-0.098 0.546,-0.154 0.252,-0.065 0.5273,-0.098 0.826,-0.098 0.924,0 1.6426,0.233 2.156,0.7 0.5226,0.457 0.784,1.143 0.784,2.058 z"
         fill="#0c0b0b"
         id="path108" />
      <g
         filter="url(#filter8_d)"
         id="g112">
        <path
           d="m 245.582,301.478 c 0,3.053 -2.475,5.528 -5.529,5.528 -3.053,0 -5.529,-2.475 -5.529,-5.528 0,-3.054 2.476,-5.529 5.529,-5.529 3.054,0 5.529,2.475 5.529,5.529 z"
           fill="#0c0b0b"
           id="path110" />
      </g>
      <g
         opacity="0.3"
         filter="url(#filter9_f)"
         id="g116">
        <path
           fill-rule="evenodd"
           clip-rule="evenodd"
           d="m 228.837,273.963 h 35.336 c 2.21,0 4,1.791 4,4 v 9.858 c 0,2.209 -1.79,4 -4,4 h -13.177 l -0.648,0.524 c -0.147,0.118 -0.356,0.118 -0.503,0 l -0.648,-0.524 h -20.36 c -2.209,0 -4,-1.791 -4,-4 v -9.858 c 0,-2.209 1.791,-4 4,-4 z"
           fill="#0c0b0b"
           id="path114" />
      </g>
      <path
         fill-rule="evenodd"
         clip-rule="evenodd"
         d="m 218.733,264.559 h 42 c 2.209,0 4,1.791 4,4 v 14 c 0,2.209 -1.791,4 -4,4 h -14 l -6.74,5.777 c -0.149,0.128 -0.37,0.128 -0.52,0 l -6.74,-5.777 h -14 c -2.209,0 -4,-1.791 -4,-4 v -14 c 0,-2.209 1.791,-4 4,-4 z"
         fill="#ffffff"
         id="path118" />
      <path
         d="m 234.86,273.315 -1.4,0.434 c -0.14,-0.093 -0.28,-0.224 -0.42,-0.392 -0.14,-0.168 -0.21,-0.401 -0.21,-0.7 0,-0.56 0.341,-0.952 1.022,-1.176 l 1.568,-0.532 h 0.518 c 0.402,0 0.719,0.117 0.952,0.35 0.234,0.233 0.35,0.551 0.35,0.952 v 7.294 c -0.102,0.019 -0.256,0.042 -0.462,0.07 -0.196,0.037 -0.396,0.056 -0.602,0.056 -0.205,0 -0.392,-0.014 -0.56,-0.042 -0.158,-0.028 -0.294,-0.084 -0.406,-0.168 -0.112,-0.084 -0.2,-0.196 -0.266,-0.336 -0.056,-0.149 -0.084,-0.341 -0.084,-0.574 z m 10.974,6.23 c -0.093,0.028 -0.242,0.056 -0.448,0.084 -0.196,0.028 -0.401,0.042 -0.616,0.042 -0.205,0 -0.392,-0.014 -0.56,-0.042 -0.158,-0.028 -0.294,-0.084 -0.406,-0.168 -0.112,-0.084 -0.2,-0.196 -0.266,-0.336 -0.056,-0.149 -0.084,-0.341 -0.084,-0.574 v -3.108 c 0,-0.383 -0.098,-0.649 -0.294,-0.798 -0.186,-0.159 -0.42,-0.238 -0.7,-0.238 -0.186,0 -0.364,0.023 -0.532,0.07 -0.168,0.047 -0.303,0.103 -0.406,0.168 v 4.9 c -0.093,0.028 -0.242,0.056 -0.448,0.084 -0.196,0.028 -0.401,0.042 -0.616,0.042 -0.205,0 -0.392,-0.014 -0.56,-0.042 -0.158,-0.028 -0.294,-0.084 -0.406,-0.168 -0.112,-0.084 -0.2,-0.196 -0.266,-0.336 -0.056,-0.149 -0.084,-0.341 -0.084,-0.574 v -8.12 c 0.103,-0.019 0.252,-0.042 0.448,-0.07 0.206,-0.037 0.411,-0.056 0.616,-0.056 0.206,0 0.388,0.014 0.546,0.042 0.168,0.028 0.308,0.084 0.42,0.168 0.112,0.084 0.196,0.201 0.252,0.35 0.066,0.14 0.098,0.327 0.098,0.56 v 1.372 c 0.122,-0.047 0.304,-0.098 0.546,-0.154 0.252,-0.065 0.528,-0.098 0.826,-0.098 0.924,0 1.643,0.233 2.156,0.7 0.523,0.457 0.784,1.143 0.784,2.058 z"
         fill="#0c0b0b"
         id="path120" />
      <g
         filter="url(#filter10_d)"
         id="g124">
        <path
           d="m 366.381,210.059 c 0,3.054 -2.476,5.529 -5.529,5.529 -3.054,0 -5.529,-2.475 -5.529,-5.529 0,-3.053 2.475,-5.529 5.529,-5.529 3.053,0 5.529,2.476 5.529,5.529 z"
           fill="#0c0b0b"
           id="path122" />
      </g>
      <g
         opacity="0.3"
         filter="url(#filter11_f)"
         id="g128">
        <path
           fill-rule="evenodd"
           clip-rule="evenodd"
           d="m 349.636,182.544 h 35.336 c 2.209,0 4,1.791 4,4 v 9.859 c 0,2.209 -1.791,4 -4,4 h -13.178 l -0.648,0.523 c -0.146,0.119 -0.356,0.119 -0.502,0 l -0.648,-0.523 h -20.36 c -2.209,0 -4,-1.791 -4,-4 v -9.859 c 0,-2.209 1.791,-4 4,-4 z"
           fill="#0c0b0b"
           id="path126" />
      </g>
      <path
         fill-rule="evenodd"
         clip-rule="evenodd"
         d="m 339.532,173.141 h 42 c 2.209,0 4,1.791 4,4 v 14 c 0,2.209 -1.791,4 -4,4 h -14 l -6.74,5.777 c -0.15,0.128 -0.371,0.128 -0.521,0 l -6.739,-5.777 h -14 c -2.209,0 -4,-1.791 -4,-4 v -14 c 0,-2.209 1.791,-4 4,-4 z"
         fill="#ffffff"
         id="path130" />
      <path
         d="m 355.876,179.419 c 1.073,0 1.89,0.224 2.45,0.672 0.56,0.438 0.84,1.031 0.84,1.778 0,0.448 -0.121,0.83 -0.364,1.148 -0.233,0.308 -0.513,0.541 -0.84,0.7 0.196,0.074 0.378,0.168 0.546,0.28 0.168,0.112 0.317,0.252 0.448,0.42 0.131,0.168 0.233,0.364 0.308,0.588 0.075,0.224 0.112,0.485 0.112,0.784 0,0.401 -0.089,0.76 -0.266,1.078 -0.168,0.317 -0.406,0.588 -0.714,0.812 -0.308,0.224 -0.677,0.392 -1.106,0.504 -0.42,0.121 -0.882,0.182 -1.386,0.182 -0.971,0 -1.703,-0.136 -2.198,-0.406 -0.495,-0.271 -0.742,-0.616 -0.742,-1.036 0,-0.252 0.061,-0.467 0.182,-0.644 0.121,-0.187 0.271,-0.332 0.448,-0.434 0.187,0.13 0.434,0.27 0.742,0.42 0.317,0.14 0.728,0.21 1.232,0.21 0.476,0 0.826,-0.084 1.05,-0.252 0.233,-0.168 0.35,-0.388 0.35,-0.658 0,-0.271 -0.093,-0.476 -0.28,-0.616 -0.177,-0.14 -0.49,-0.21 -0.938,-0.21 h -1.316 c -0.065,-0.103 -0.121,-0.229 -0.168,-0.378 -0.047,-0.15 -0.07,-0.327 -0.07,-0.532 0,-0.215 0.019,-0.397 0.056,-0.546 0.047,-0.159 0.107,-0.29 0.182,-0.392 h 1.316 c 0.672,0 1.008,-0.257 1.008,-0.77 0,-0.243 -0.107,-0.439 -0.322,-0.588 -0.215,-0.15 -0.537,-0.224 -0.966,-0.224 -0.383,0 -0.719,0.046 -1.008,0.14 -0.289,0.084 -0.527,0.191 -0.714,0.322 -0.159,-0.112 -0.289,-0.248 -0.392,-0.406 -0.103,-0.168 -0.154,-0.364 -0.154,-0.588 0,-0.467 0.243,-0.808 0.728,-1.022 0.485,-0.224 1.134,-0.336 1.946,-0.336 z m 11.632,8.708 c -0.093,0.028 -0.243,0.056 -0.448,0.084 -0.196,0.028 -0.401,0.042 -0.616,0.042 -0.205,0 -0.392,-0.014 -0.56,-0.042 -0.159,-0.028 -0.294,-0.084 -0.406,-0.168 -0.112,-0.084 -0.201,-0.196 -0.266,-0.336 -0.056,-0.15 -0.084,-0.341 -0.084,-0.574 v -3.108 c 0,-0.383 -0.098,-0.649 -0.294,-0.798 -0.187,-0.159 -0.42,-0.238 -0.7,-0.238 -0.187,0 -0.364,0.023 -0.532,0.07 -0.168,0.046 -0.303,0.102 -0.406,0.168 v 4.9 c -0.093,0.028 -0.243,0.056 -0.448,0.084 -0.196,0.028 -0.401,0.042 -0.616,0.042 -0.205,0 -0.392,-0.014 -0.56,-0.042 -0.159,-0.028 -0.294,-0.084 -0.406,-0.168 -0.112,-0.084 -0.201,-0.196 -0.266,-0.336 -0.056,-0.15 -0.084,-0.341 -0.084,-0.574 v -8.12 c 0.103,-0.019 0.252,-0.042 0.448,-0.07 0.205,-0.038 0.411,-0.056 0.616,-0.056 0.205,0 0.387,0.014 0.546,0.042 0.168,0.028 0.308,0.084 0.42,0.168 0.112,0.084 0.196,0.2 0.252,0.35 0.065,0.14 0.098,0.326 0.098,0.56 v 1.372 c 0.121,-0.047 0.303,-0.098 0.546,-0.154 0.252,-0.066 0.527,-0.098 0.826,-0.098 0.924,0 1.643,0.233 2.156,0.7 0.523,0.457 0.784,1.143 0.784,2.058 z"
         fill="#0c0b0b"
         id="path132" />
      <g
         filter="url(#filter12_d)"
         id="g136">
        <path
           d="m 432.007,256.277 c 0,3.053 -2.476,5.529 -5.529,5.529 -3.054,0 -5.529,-2.476 -5.529,-5.529 0,-3.054 2.475,-5.529 5.529,-5.529 3.053,0 5.529,2.475 5.529,5.529 z"
           fill="#0c0b0b"
           id="path134" />
      </g>
      <g
         opacity="0.3"
         filter="url(#filter13_f)"
         id="g140">
        <path
           fill-rule="evenodd"
           clip-rule="evenodd"
           d="m 415.262,228.762 h 35.336 c 2.209,0 4,1.791 4,4 v 9.858 c 0,2.209 -1.791,4 -4,4 H 437.42 l -0.648,0.524 c -0.146,0.118 -0.356,0.118 -0.502,0 l -0.649,-0.524 h -20.359 c -2.209,0 -4,-1.791 -4,-4 v -9.858 c 0,-2.209 1.791,-4 4,-4 z"
           fill="#0c0b0b"
           id="path138" />
      </g>
      <path
         fill-rule="evenodd"
         clip-rule="evenodd"
         d="m 405.158,219.358 h 42 c 2.209,0 4,1.791 4,4 v 14 c 0,2.209 -1.791,4 -4,4 h -14 l -6.74,5.777 c -0.15,0.129 -0.371,0.129 -0.521,0 l -6.739,-5.777 h -14 c -2.209,0 -4,-1.791 -4,-4 v -14 c 0,-2.209 1.791,-4 4,-4 z"
         fill="#ffffff"
         id="path142" />
      <path
         d="m 421.58,225.636 c 0.532,0 1.003,0.07 1.414,0.21 0.41,0.131 0.76,0.313 1.05,0.546 0.289,0.234 0.508,0.509 0.658,0.826 0.149,0.318 0.224,0.658 0.224,1.022 0,0.98 -0.556,1.914 -1.666,2.8 l -1.834,1.47 h 3.36 c 0.056,0.103 0.107,0.234 0.154,0.392 0.056,0.159 0.084,0.332 0.084,0.518 0,0.336 -0.075,0.579 -0.224,0.728 -0.15,0.14 -0.346,0.21 -0.588,0.21 h -4.858 c -0.206,-0.14 -0.369,-0.317 -0.49,-0.532 -0.112,-0.224 -0.168,-0.485 -0.168,-0.784 0,-0.317 0.065,-0.583 0.196,-0.798 0.13,-0.224 0.275,-0.401 0.434,-0.532 l 1.932,-1.652 c 0.242,-0.205 0.443,-0.387 0.602,-0.546 0.158,-0.168 0.284,-0.317 0.378,-0.448 0.102,-0.13 0.172,-0.252 0.21,-0.364 0.046,-0.112 0.07,-0.219 0.07,-0.322 0,-0.261 -0.117,-0.466 -0.35,-0.616 -0.224,-0.149 -0.504,-0.224 -0.84,-0.224 -0.374,0 -0.71,0.061 -1.008,0.182 -0.29,0.112 -0.532,0.234 -0.728,0.364 -0.159,-0.112 -0.29,-0.252 -0.392,-0.42 -0.103,-0.168 -0.154,-0.364 -0.154,-0.588 0,-0.485 0.228,-0.844 0.686,-1.078 0.457,-0.242 1.073,-0.364 1.848,-0.364 z m 11.588,8.708 c -0.093,0.028 -0.242,0.056 -0.448,0.084 -0.196,0.028 -0.401,0.042 -0.616,0.042 -0.205,0 -0.392,-0.014 -0.56,-0.042 -0.158,-0.028 -0.294,-0.084 -0.406,-0.168 -0.112,-0.084 -0.2,-0.196 -0.266,-0.336 -0.056,-0.149 -0.084,-0.34 -0.084,-0.574 v -3.108 c 0,-0.382 -0.098,-0.648 -0.294,-0.798 -0.186,-0.158 -0.42,-0.238 -0.7,-0.238 -0.186,0 -0.364,0.024 -0.532,0.07 -0.168,0.047 -0.303,0.103 -0.406,0.168 v 4.9 c -0.093,0.028 -0.242,0.056 -0.448,0.084 -0.196,0.028 -0.401,0.042 -0.616,0.042 -0.205,0 -0.392,-0.014 -0.56,-0.042 -0.158,-0.028 -0.294,-0.084 -0.406,-0.168 -0.112,-0.084 -0.2,-0.196 -0.266,-0.336 -0.056,-0.149 -0.084,-0.34 -0.084,-0.574 v -8.12 c 0.103,-0.018 0.252,-0.042 0.448,-0.07 0.206,-0.037 0.411,-0.056 0.616,-0.056 0.206,0 0.388,0.014 0.546,0.042 0.168,0.028 0.308,0.084 0.42,0.168 0.112,0.084 0.196,0.201 0.252,0.35 0.066,0.14 0.098,0.327 0.098,0.56 v 1.372 c 0.122,-0.046 0.304,-0.098 0.546,-0.154 0.252,-0.065 0.528,-0.098 0.826,-0.098 0.924,0 1.643,0.234 2.156,0.7 0.523,0.458 0.784,1.144 0.784,2.058 z"
         fill="#0c0b0b"
         id="path144" />
    </g>
  </g>
</svg>
